<?xml version="1.0" standalone="no"?>
<!DOCTYPE svg PUBLIC "-//W3C//DTD SVG 20010904//EN"
 "http://www.w3.org/TR/2001/REC-SVG-20010904/DTD/svg10.dtd">
<svg version="1.0" xmlns="http://www.w3.org/2000/svg"
 width="513.000000pt" height="513.000000pt" viewBox="0 0 513.000000 513.000000"
 preserveAspectRatio="xMidYMid meet">

<g transform="translate(0.000000,513.000000) scale(0.100000,-0.100000)"
fill="#000000" stroke="none">
<path d="M2141 4653 c-1 -18 4 -33 9 -33 12 0 12 17 0 45 -7 17 -9 15 -9 -12z"/>
<path d="M4390 4463 c-19 -15 -49 -41 -66 -58 -136 -131 -274 -246 -403 -333
-99 -68 -250 -199 -349 -305 -81 -85 -77 -94 4 -12 134 136 227 214 380 320
16 11 35 25 42 32 30 29 131 103 140 103 6 0 12 -5 14 -11 3 -8 15 -6 38 7 32
17 33 19 13 22 -25 4 -32 22 -9 22 8 0 22 10 30 22 13 18 18 19 31 8 22 -18
44 2 26 24 -16 19 -5 38 57 100 36 35 56 47 70 44 16 -4 19 -1 18 18 0 13 -1
24 -1 24 0 0 -16 -12 -35 -27z"/>
<path d="M2162 4450 c-2 -18 -5 -21 -11 -12 -7 11 -9 11 -14 -2 -7 -18 -66
-20 -182 -7 -80 10 -135 2 -280 -39 -154 -43 -219 -68 -234 -90 -9 -13 -25
-20 -48 -20 -23 0 -52 -12 -91 -39 -120 -82 -182 -121 -190 -121 -5 0 -20 -11
-34 -24 -14 -12 -43 -33 -63 -46 -49 -30 -90 -69 -82 -77 4 -3 -15 -28 -43
-55 -46 -45 -69 -61 -55 -38 12 19 -6 10 -32 -16 l-25 -25 23 -17 c13 -9 41
-28 64 -41 l40 -24 -21 24 c-12 13 -19 30 -17 38 5 11 7 11 14 0 7 -11 9 -10
9 4 0 20 32 54 151 160 l76 67 63 0 c53 0 61 2 56 16 -3 9 1 25 9 37 9 13 11
25 5 32 -12 15 25 57 72 78 43 20 46 21 45 5 -2 -53 5 -56 107 -37 73 14 104
27 117 50 12 23 -5 66 -28 72 -10 3 3 5 28 6 25 0 68 4 95 8 46 6 48 6 31 -11
-9 -10 -17 -23 -17 -30 0 -20 101 -96 128 -96 6 0 32 18 58 40 27 22 71 47 98
55 56 17 97 50 89 71 -3 9 2 14 15 14 46 0 52 -9 53 -84 l1 -71 14 95 c8 52
13 113 11 135 -2 22 -4 29 -5 15z m-245 -86 c-3 -3 -12 -4 -19 -1 -8 3 -5 6 6
6 11 1 17 -2 13 -5z m-397 -71 c-8 -3 -23 -12 -32 -20 -9 -8 -25 -13 -35 -10
-15 4 -15 5 3 6 12 0 27 8 34 16 7 8 20 15 29 14 13 0 14 -1 1 -6z m-295 -133
c-3 -5 -12 -10 -18 -10 -7 0 -6 4 3 10 19 12 23 12 15 0z m-51 -35 c-10 -8
-23 -15 -28 -15 -6 0 -1 7 10 15 10 8 23 15 28 15 6 0 1 -7 -10 -15z"/>
<path d="M2186 4422 c-4 -3 -6 -20 -6 -38 l0 -32 68 5 67 5 -37 -26 c-62 -43
-48 -66 41 -66 27 0 63 -8 86 -20 46 -23 95 -27 95 -6 0 24 -39 64 -74 76 -19
6 -40 18 -48 27 -11 15 -10 16 12 9 14 -3 62 -13 108 -21 70 -12 90 -19 129
-51 l45 -37 55 13 c48 12 63 12 121 -4 59 -15 202 -77 241 -104 10 -7 11 -14
1 -31 -6 -13 -8 -35 -5 -52 12 -52 27 -59 128 -59 77 -1 96 -4 116 -21 32 -26
22 -34 -16 -13 -37 22 -66 13 -61 -18 2 -15 11 -24 26 -26 32 -5 28 -16 -30
-69 -28 -26 -59 -55 -68 -63 -45 -42 -44 -42 -106 -11 -33 16 -68 31 -80 34
-59 13 -244 -43 -244 -75 0 -7 6 -6 18 4 32 27 73 38 140 38 65 0 159 -24 174
-44 12 -17 -2 -26 -31 -20 -22 5 -32 0 -50 -21 -11 -15 -21 -39 -21 -53 0 -18
-17 -42 -57 -81 -55 -52 -58 -54 -61 -31 -1 14 8 52 22 85 25 63 23 90 -10
111 -16 10 -26 9 -56 -6 -20 -10 -40 -15 -44 -11 -4 3 -4 -7 0 -23 4 -15 10
-42 13 -60 3 -17 10 -37 16 -44 7 -9 7 -16 -1 -24 -16 -16 -15 -45 1 -52 8 -3
7 -8 -5 -16 -10 -6 -18 -20 -18 -30 0 -10 -4 -22 -10 -25 -5 -3 -10 -11 -10
-17 0 -6 9 -3 20 7 11 10 23 15 28 11 4 -4 -3 -16 -15 -26 -13 -10 -23 -23
-23 -29 0 -6 -4 -11 -10 -11 -5 0 -10 5 -10 11 0 6 -13 -2 -30 -18 -32 -30
-38 -49 -17 -56 9 -3 8 -11 -4 -33 -17 -32 -27 -33 -81 -10 -21 9 -38 12 -38
7 0 -5 11 -12 25 -15 25 -6 36 -36 13 -36 -6 0 -8 -3 -5 -6 4 -4 13 -1 22 6 9
7 15 8 15 2 0 -13 -90 -146 -129 -192 -17 -19 -31 -42 -31 -51 0 -22 -24 -41
-42 -34 -7 3 -22 -1 -33 -9 -18 -14 -18 -15 -2 -16 9 0 17 -5 17 -10 0 -7 -6
-7 -19 -1 -24 13 -81 -7 -82 -29 0 -10 -2 -11 -6 -3 -3 10 -11 9 -34 -2 -16
-9 -31 -14 -35 -13 -3 2 -10 -5 -15 -14 -6 -10 -17 -18 -24 -18 -11 0 -15 -13
-15 -51 0 -46 4 -54 36 -83 l37 -33 -36 -36 -35 -37 35 0 c23 0 33 4 30 13 -2
6 14 35 37 62 50 60 92 118 177 245 61 91 108 157 151 210 11 14 33 48 49 75
15 28 42 62 58 78 16 15 65 71 107 125 77 96 222 247 339 352 189 169 234 213
297 290 81 97 97 125 80 142 -9 9 -18 6 -37 -12 l-25 -24 -28 22 c-38 31 -82
54 -82 44 0 -11 39 -46 68 -61 12 -6 22 -16 22 -22 0 -5 -23 -39 -52 -75 l-52
-64 -60 58 c-34 33 -83 74 -111 92 -76 51 -370 197 -407 203 -78 12 -177 26
-223 31 -27 3 -106 13 -175 21 -171 21 -208 24 -214 17z m659 -763 c4 -11 5
-22 3 -25 -6 -6 -48 26 -48 37 0 18 39 9 45 -12z m-427 -771 c4 -19 -35 -35
-50 -20 -6 6 -8 18 -4 27 8 21 50 16 54 -7z m-138 -73 c0 -6 -8 -20 -19 -29
-17 -16 -20 -16 -35 -1 -20 20 -20 20 -1 38 16 17 55 11 55 -8z"/>
<path d="M1408 4293 c7 -3 16 -2 19 1 4 3 -2 6 -13 5 -11 0 -14 -3 -6 -6z"/>
<path d="M4292 4261 c-4 -11 -32 -33 -62 -49 -40 -22 -54 -35 -52 -49 14 -79
20 -104 32 -117 31 -38 80 -3 80 57 0 35 17 87 29 87 3 0 15 -12 25 -27 19
-25 19 -26 -2 -42 -56 -43 -26 -109 45 -98 54 9 65 -4 48 -61 -8 -25 -23 -59
-35 -74 -11 -15 -20 -36 -20 -47 0 -28 47 -61 89 -62 53 -1 75 -10 121 -49 44
-36 84 -108 116 -209 14 -44 19 -51 25 -35 5 14 8 8 8 -21 1 -67 -10 -114 -25
-108 -8 3 -15 -4 -18 -19 -2 -12 -10 -48 -16 -79 -15 -66 -11 -88 15 -103 30
-17 33 -23 41 -110 l8 -81 11 70 c8 55 12 65 19 47 4 -12 12 -20 17 -17 16 10
10 97 -10 150 -12 34 -20 87 -24 164 -4 93 -8 117 -22 127 -9 7 -14 17 -11 23
4 5 2 12 -4 16 -5 3 -10 13 -10 22 0 8 -14 45 -32 81 -17 37 -32 80 -34 96 -1
15 -11 41 -23 57 -11 15 -31 54 -42 86 -61 166 -110 243 -208 331 -64 57 -72
61 -79 43z"/>
<path d="M2140 4191 c0 -5 -22 -17 -49 -26 -67 -22 -136 -77 -162 -127 -23
-46 -41 -145 -29 -167 4 -7 10 13 13 46 10 94 57 186 86 169 6 -4 25 9 42 29
22 24 44 37 71 41 28 5 38 11 38 25 0 11 -2 19 -5 19 -3 0 -5 -4 -5 -9z"/>
<path d="M2588 4171 c-23 -23 -23 -36 2 -61 23 -23 29 -24 54 -5 18 13 18 15
-4 49 -25 41 -28 42 -52 17z"/>
<path d="M2185 4170 c3 -5 13 -10 21 -10 8 0 14 -4 14 -8 0 -4 11 -9 25 -10
67 -5 206 -112 173 -133 -8 -5 -9 -9 -2 -9 7 0 11 -8 10 -17 0 -10 5 -17 12
-16 17 4 15 -12 -3 -27 -8 -7 -15 -19 -15 -27 0 -13 -3 -13 -25 1 -13 9 -31
16 -40 16 -8 0 -15 5 -15 11 0 6 6 9 13 6 15 -5 63 30 53 40 -5 6 -31 -3 -76
-27 -8 -5 -14 -13 -13 -18 1 -5 -6 -8 -17 -5 -32 8 -64 -4 -75 -29 -7 -16 -18
-22 -33 -21 -22 3 -23 2 -21 -122 1 -114 7 -143 24 -115 3 6 16 10 28 10 20 0
19 -3 -10 -26 -32 -25 -33 -27 -33 -104 0 -90 8 -100 79 -100 86 0 148 97 118
184 l-15 43 34 26 c43 35 81 85 89 120 7 25 5 27 -21 27 -47 0 -129 -44 -164
-88 -33 -42 -80 -62 -80 -35 0 27 80 112 131 139 27 15 49 31 49 36 0 5 23 6
50 2 l50 -7 -6 34 c-18 100 -91 194 -189 240 -58 28 -133 40 -120 19z m164
-274 c8 -5 16 -4 21 4 4 7 10 8 13 3 10 -16 -32 -53 -58 -53 -27 0 -28 3 -19
36 6 22 18 25 43 10z m-107 -18 c-7 -7 -12 -8 -12 -2 0 14 12 26 19 19 2 -3
-1 -11 -7 -17z m-12 -68 c0 -15 -7 -20 -25 -20 -24 0 -34 18 -18 33 15 15 43
7 43 -13z m185 -70 c-3 -4 -14 -10 -25 -13 -29 -7 -39 22 -14 40 16 12 20 11
31 -3 7 -9 10 -20 8 -24z m-80 -39 c3 -5 1 -12 -4 -15 -12 -8 -41 3 -41 15 0
12 37 12 45 0z m-95 -101 c0 -7 7 -7 20 0 25 14 36 7 44 -26 9 -33 -17 -64
-54 -64 -43 0 -62 36 -44 84 7 18 34 22 34 6z m95 -110 c-10 -11 -30 -20 -44
-20 -26 1 -26 1 9 30 39 32 66 25 35 -10z"/>
<path d="M2780 4153 c-40 -21 -80 -75 -80 -110 0 -39 26 -90 56 -110 16 -10
47 -18 74 -19 25 0 51 -3 56 -7 6 -3 20 -4 31 -1 24 6 30 29 32 120 2 57 0 64
-32 98 -19 20 -44 36 -55 36 -11 0 -26 2 -34 5 -7 3 -29 -3 -48 -12z m70 -23
c0 -5 -10 -10 -21 -10 -12 0 -36 -16 -53 -35 -18 -19 -35 -35 -39 -35 -16 0
-5 28 22 58 21 23 39 32 60 32 17 0 31 -4 31 -10z m12 -57 c35 -32 13 -93 -34
-93 -26 0 -58 27 -58 49 0 27 30 61 52 61 12 0 30 -7 40 -17z m52 -87 c-9 -24
-43 -41 -57 -27 -7 7 -8 11 -1 11 13 0 55 35 50 42 -1 3 1 2 6 -2 5 -3 6 -14
2 -24z"/>
<path d="M2135 4140 c3 -5 8 -10 11 -10 2 0 4 5 4 10 0 6 -5 10 -11 10 -5 0
-7 -4 -4 -10z"/>
<path d="M1818 4119 c-10 -5 -18 -19 -18 -29 0 -24 21 -70 31 -70 15 0 30 41
27 72 -3 35 -14 42 -40 27z"/>
<path d="M1539 4065 c-40 -22 -63 -64 -63 -118 l-1 -47 -44 6 c-52 8 -54 8
-106 5 -40 -3 -40 -3 -10 -11 17 -5 55 -14 85 -20 31 -7 71 -25 92 -41 39 -30
98 -49 98 -31 0 5 17 13 37 17 22 4 50 20 70 40 29 29 33 40 33 84 0 59 -19
95 -61 117 -35 18 -96 18 -130 -1z m36 -42 c-22 -15 -48 -36 -57 -48 -17 -20
-17 -20 -18 7 0 34 42 68 84 68 l31 0 -40 -27z m63 -29 c39 -27 22 -94 -25
-94 -54 0 -81 54 -46 92 20 22 42 23 71 2z m58 -98 c-14 -23 -56 -42 -56 -26
0 4 11 15 25 24 14 9 25 26 25 39 1 20 2 20 11 4 8 -13 7 -24 -5 -41z"/>
<path d="M3996 4072 c-3 -6 1 -29 10 -53 22 -60 28 -165 12 -213 -12 -37 -13
-38 -19 -15 -5 18 -7 13 -6 -18 0 -24 4 -43 8 -43 4 0 14 -3 23 -6 12 -5 24
12 50 70 19 42 40 76 45 76 6 0 11 10 11 23 0 18 -5 23 -22 23 -17 -1 -23 6
-29 31 -8 39 -52 126 -67 131 -5 1 -13 -1 -16 -6z"/>
<path d="M2245 4038 c-11 -7 -26 -18 -33 -25 -7 -7 -20 -13 -28 -13 -9 0 -14
-10 -14 -27 0 -27 0 -27 40 15 23 23 45 42 50 42 6 0 10 5 10 10 0 12 0 12
-25 -2z"/>
<path d="M3914 4012 c-72 -56 -106 -93 -99 -110 6 -16 -50 -141 -69 -155 -8
-6 -7 -10 2 -14 6 -2 12 -11 12 -19 0 -8 9 -14 20 -14 15 0 20 7 20 25 0 28 3
30 28 14 12 -8 25 -7 47 2 20 8 25 13 15 16 -9 2 -21 12 -28 23 -11 18 -10 20
11 20 13 0 28 -5 35 -12 9 -9 12 -9 12 1 0 7 9 24 20 38 13 16 18 34 14 45 -4
13 1 27 15 39 21 20 21 20 21 -6 0 -13 -9 -48 -20 -76 -10 -29 -16 -57 -13
-62 3 -6 1 -7 -4 -4 -6 4 -14 0 -17 -9 -8 -22 -9 -22 19 -17 20 4 24 11 23 38
-1 17 2 37 6 43 10 16 16 48 21 106 4 47 -14 108 -35 121 -4 3 -29 -12 -56
-33z m26 -72 c0 -16 -7 -20 -30 -20 -34 0 -38 7 -12 26 25 19 42 17 42 -6z m0
-90 c0 -23 -31 -27 -49 -7 -14 17 -4 27 26 27 16 0 23 -6 23 -20z"/>
<path d="M597 4013 c-3 -5 3 -20 14 -33 12 -17 19 -20 18 -10 0 20 -26 54 -32
43z"/>
<path d="M2077 3980 c-26 -9 -44 -20 -40 -25 5 -4 -4 -5 -19 -1 -17 4 -28 2
-28 -4 0 -5 5 -10 10 -10 6 0 10 -4 10 -9 0 -5 5 -22 12 -38 6 -15 12 -31 12
-35 1 -3 4 -10 9 -14 13 -14 7 -32 -13 -37 -26 -7 -27 -47 -1 -47 24 0 36 -29
16 -36 -8 -4 -22 -4 -30 -1 -16 7 -24 -2 -30 -33 -4 -21 48 -62 106 -82 23 -8
28 -15 28 -41 -1 -33 29 -114 32 -87 3 32 -2 177 -7 227 -6 49 -7 51 -29 43
-18 -7 -25 -5 -29 7 -10 24 8 37 33 24 20 -11 21 -10 21 55 0 56 -2 65 -16 60
-9 -3 -18 -6 -21 -6 -3 0 1 -7 8 -16 11 -14 10 -18 -6 -30 -28 -20 -47 0 -39
41 4 26 2 35 -13 44 -17 11 -17 12 2 26 26 20 39 14 43 -19 3 -27 4 -27 23
-10 18 16 28 76 12 73 -5 -1 -29 -9 -56 -19z m21 -302 c3 -13 -3 -18 -22 -18
-27 0 -41 14 -31 31 10 16 49 6 53 -13z"/>
<path d="M1963 3931 c-3 -11 -9 -18 -14 -15 -5 3 -9 -2 -9 -10 0 -21 16 -20
38 2 15 15 16 20 4 31 -11 11 -14 9 -19 -8z"/>
<path d="M2990 3935 c-26 -31 39 -65 123 -65 33 0 37 3 37 25 0 17 -9 29 -30
40 -38 20 -114 20 -130 0z"/>
<path d="M1334 3852 c-28 -4 -36 -44 -18 -86 15 -35 108 -120 126 -114 6 2 -1
16 -17 31 -31 28 -27 49 5 29 32 -19 50 -15 50 13 0 13 10 33 22 44 18 17 19
23 8 36 -7 9 -23 21 -34 28 -23 12 -109 24 -142 19z m36 -62 c0 -35 -17 -40
-29 -7 -10 26 -6 37 15 37 9 0 14 -11 14 -30z m90 13 c0 -12 -22 -43 -30 -43
-11 0 -14 43 -4 53 6 6 34 -2 34 -10z"/>
<path d="M4202 3824 c-27 -18 -28 -45 -4 -67 28 -25 40 -21 59 19 17 34 17 36
-2 50 -24 18 -26 17 -53 -2z"/>
<path d="M1124 3792 c-29 -37 -50 -81 -58 -120 -5 -28 -2 -37 17 -52 27 -23
35 -18 31 17 -5 40 16 124 38 149 21 24 23 34 6 33 -7 0 -22 -12 -34 -27z"/>
<path d="M3651 3783 c-17 -21 -31 -44 -30 -53 0 -13 1 -13 6 0 6 17 32 40 46
40 5 0 6 -12 2 -27 -6 -28 -6 -28 12 -7 10 11 24 31 31 43 13 21 12 23 -3 17
-13 -4 -16 -2 -11 9 11 29 -23 15 -53 -22z"/>
<path d="M740 3785 c-18 -19 -20 -24 -7 -19 9 3 17 10 17 14 0 4 7 11 16 14
10 4 13 2 8 -7 -10 -16 -47 -42 -56 -39 -5 1 -8 -4 -8 -11 0 -8 -9 -22 -20
-32 -11 -10 -20 -22 -20 -26 0 -5 -24 -48 -54 -96 -30 -49 -69 -124 -86 -168
-17 -44 -36 -91 -43 -104 -7 -13 -11 -33 -9 -45 2 -15 0 -17 -6 -8 -11 16 -43
-33 -67 -105 -15 -43 -66 -354 -64 -393 0 -8 10 14 22 49 20 58 23 62 27 36 4
-23 14 -33 43 -44 34 -13 40 -12 54 2 14 14 14 22 2 77 -16 74 -31 90 -60 64
-20 -18 -20 -18 -14 11 18 81 89 331 97 339 4 6 8 -7 9 -30 3 -136 27 -145 95
-33 19 33 40 59 46 59 7 0 8 16 4 48 -4 26 -8 70 -9 99 -2 29 -7 57 -13 63 -8
8 -4 24 15 59 42 77 65 101 89 94 48 -12 67 3 78 62 8 46 7 58 -6 69 -31 27
-55 27 -80 1z m-270 -549 c0 -3 -4 -8 -10 -11 -5 -3 -10 -1 -10 4 0 6 5 11 10
11 6 0 10 -2 10 -4z"/>
<path d="M2684 3693 c-29 -40 -54 -108 -54 -148 0 -22 -5 -35 -13 -35 -21 0
-35 -20 -30 -41 4 -14 11 -18 24 -14 14 5 22 -1 29 -22 6 -15 13 -35 16 -43 4
-12 9 -11 24 7 15 19 16 29 8 65 -12 51 -4 136 17 197 19 53 7 72 -21 34z"/>
<path d="M902 3680 c-21 -20 -21 -40 1 -67 13 -18 42 -16 57 2 11 13 9 22 -6
50 -22 41 -23 41 -52 15z"/>
<path d="M3549 3684 c-11 -13 -8 -19 17 -40 33 -27 68 -39 83 -29 15 9 14 35
-2 35 -7 0 -29 11 -49 25 -32 22 -37 23 -49 9z"/>
<path d="M3704 3689 c-4 -7 -23 -9 -53 -5 -44 6 -45 5 -20 -8 31 -16 75 -10
83 10 6 17 0 19 -10 3z"/>
<path d="M582 3655 c-28 -40 -47 -108 -29 -102 7 2 17 17 22 34 6 16 16 37 23
46 8 9 12 25 10 36 -3 18 -6 17 -26 -14z"/>
<path d="M1157 3684 c-4 -4 -7 -18 -7 -31 0 -12 -5 -22 -11 -20 -23 5 -17 -35
10 -65 27 -30 29 -31 52 -15 32 23 52 22 44 -2 -4 -14 1 -20 21 -25 15 -4 48
-21 73 -39 25 -17 50 -30 56 -29 14 5 35 -28 28 -44 -3 -8 -1 -14 5 -14 14 0
22 38 15 71 -4 23 -12 29 -44 34 -22 4 -46 13 -53 20 -7 8 -16 12 -18 10 -5
-5 -53 87 -51 96 8 25 -100 72 -120 53z m86 -49 c-4 -15 -56 -12 -61 3 -3 10
5 13 29 10 19 -2 33 -7 32 -13z"/>
<path d="M2715 3616 c-16 -38 -19 -119 -5 -151 6 -15 9 -7 9 29 1 46 2 48 16
30 13 -17 14 -13 15 48 0 77 -14 95 -35 44z"/>
<path d="M3427 3603 c-19 -21 -56 -63 -82 -93 -100 -116 -204 -229 -320 -347
-66 -68 -118 -123 -114 -123 8 0 62 41 71 55 5 6 18 4 37 -8 37 -21 45 -22 37
0 -4 10 -4 14 0 11 4 -4 16 4 26 18 11 14 18 27 16 30 -8 7 -39 -7 -34 -15 3
-4 -8 -12 -25 -18 -16 -6 -29 -9 -29 -6 0 3 24 31 54 62 30 31 91 99 136 151
45 52 94 108 109 124 14 16 36 42 48 59 12 16 43 51 69 79 25 27 44 51 42 54
-3 2 -21 -13 -41 -33z"/>
<path d="M4235 3629 c-9 -13 -7 -15 33 -22 18 -4 32 -2 32 3 0 6 4 10 10 10 5
0 6 -8 3 -17 -6 -16 -5 -16 10 -4 10 8 20 11 24 7 3 -3 2 -6 -4 -6 -6 0 -13
-8 -17 -17 -3 -10 -14 -31 -25 -48 -19 -30 -20 -38 -5 -132 3 -18 1 -33 -5
-33 -5 0 -12 12 -14 28 -3 19 -4 17 -4 -10 1 -20 5 -34 9 -32 16 10 7 -25 -12
-47 l-20 -24 11 26 c8 20 8 32 -1 48 -6 12 -8 30 -5 41 3 10 0 38 -7 62 l-12
43 -7 -45 -6 -45 -2 60 -2 60 -15 -40 c-9 -22 -22 -54 -29 -71 -12 -27 -11
-34 5 -58 l18 -28 10 39 11 38 -6 -48 c-7 -62 19 -127 48 -120 10 3 21 14 24
24 4 10 11 19 16 19 5 0 9 9 9 21 0 11 7 27 15 35 13 14 16 14 21 0 3 -8 12
-12 20 -9 8 3 14 1 14 -4 0 -17 54 -13 96 7 23 12 50 32 58 45 27 40 60 28 48
-18 -3 -11 -11 -16 -22 -12 -12 4 -25 -3 -36 -18 -11 -13 -40 -32 -66 -41 -47
-17 -58 -29 -38 -41 22 -13 53 -146 47 -201 -3 -30 -2 -54 2 -54 13 0 79 53
99 80 36 47 63 140 65 220 1 67 -3 83 -35 151 -45 95 -83 131 -172 163 -74 27
-179 35 -191 15z m242 -66 c23 -15 40 -30 37 -35 -3 -4 2 -8 10 -8 21 0 21
-55 2 -102 -12 -27 -25 -39 -59 -52 -40 -15 -47 -15 -80 -1 -87 36 -97 174
-15 210 46 20 58 19 105 -12z m-230 -235 c-3 -7 -5 -2 -5 12 0 14 2 19 5 13 2
-7 2 -19 0 -25z m353 -55 c0 -20 -25 -26 -51 -12 l-23 12 23 19 c18 14 27 16
37 7 8 -6 14 -18 14 -26z m-124 -21 c23 4 32 -30 9 -38 -19 -8 -30 2 -40 36
-4 17 -3 21 3 12 5 -8 17 -12 28 -10z m64 -111 c0 -27 -15 -34 -34 -15 -23 22
-20 34 9 34 18 0 25 -5 25 -19z"/>
<path d="M4357 3518 c-26 -35 -28 -59 -9 -95 18 -33 43 -43 86 -33 123 27 108
160 -18 160 -28 0 -40 -7 -59 -32z m101 -14 c12 -8 22 -26 22 -39 0 -24 -33
-55 -57 -55 -20 0 -53 38 -53 59 0 24 26 51 48 51 10 0 28 -7 40 -16z"/>
<path d="M1945 3600 c-4 -17 -5 -34 -2 -36 3 -3 8 9 12 26 4 17 5 34 2 36 -3
3 -8 -9 -12 -26z"/>
<path d="M1057 3582 c11 -28 22 -42 35 -42 30 0 23 17 -24 59 l-28 24 17 -41z"/>
<path d="M3480 3601 c0 -5 5 -13 11 -16 6 -4 8 -13 5 -21 -3 -7 -1 -16 4 -19
4 -3 11 1 13 7 3 7 6 -1 6 -19 1 -34 -28 -61 -50 -47 -6 3 -22 0 -36 -7 -19
-10 -26 -10 -32 -1 -10 17 -37 -13 -55 -64 -8 -21 -15 -33 -15 -26 -1 6 -5 12
-11 12 -16 0 -12 -47 5 -54 8 -3 15 -10 15 -16 0 -14 -43 -30 -54 -20 -5 5
-16 6 -25 3 -9 -4 -4 5 12 22 15 15 27 32 27 38 0 6 -10 0 -22 -14 -13 -13
-45 -48 -73 -78 -27 -30 -44 -51 -37 -47 8 5 19 1 28 -10 9 -11 13 -13 9 -6
-4 8 2 12 20 12 25 0 25 1 10 17 -16 15 -16 18 -1 28 9 7 14 14 11 16 -2 3 5
5 15 5 19 0 24 -11 23 -44 -1 -10 7 -12 25 -7 15 4 29 10 32 13 3 4 15 13 28
20 18 10 22 10 22 -3 0 -8 5 -15 11 -15 5 0 7 -5 3 -11 -5 -8 6 -9 36 -4 37 6
41 5 38 -11 -5 -26 61 -72 73 -52 18 27 50 122 56 163 7 53 -16 133 -60 205
-30 49 -67 78 -67 51z m44 -135 c-16 -13 -30 -21 -32 -16 -5 13 42 57 52 49 5
-4 -4 -19 -20 -33z m-124 -5 c0 -5 -7 -12 -16 -15 -14 -5 -15 -4 -4 9 14 17
20 19 20 6z m56 0 c-19 -7 -19 -8 2 -13 34 -9 30 -22 -22 -65 -11 -10 -17 -9
-25 0 -22 27 12 88 48 86 12 0 11 -3 -3 -8z m98 -62 c-19 -21 -18 -30 4 -23
14 5 14 3 -3 -11 -18 -14 -20 -14 -23 -1 -2 9 -10 16 -18 16 -25 0 -28 30 -4
55 l23 24 17 -22 c16 -19 17 -24 4 -38z m-136 -55 c8 -16 7 -20 -6 -21 -9 -1
-27 -4 -39 -8 -18 -6 -23 -3 -23 12 0 10 7 29 16 41 17 24 29 18 52 -24z m78
26 c18 0 18 -24 -1 -40 -19 -16 -45 -6 -45 18 0 21 23 48 28 32 2 -5 10 -10
18 -10z m37 -72 c7 -20 -12 -48 -32 -48 -26 0 -31 9 -19 36 12 25 43 33 51 12z"/>
<path d="M1915 3553 c5 -18 2 -23 -11 -23 -14 0 -14 -2 -3 -16 11 -14 10 -16
-6 -14 -40 4 -47 0 -43 -23 7 -34 -17 -50 -60 -43 -28 4 -33 3 -22 -5 11 -8
12 -12 3 -16 -20 -7 -15 -23 5 -16 39 14 -7 -19 -54 -38 l-49 -20 40 6 c59 9
143 70 189 138 37 56 38 60 21 75 -16 16 -17 16 -10 -5z m-38 -75 c-3 -8 -6
-5 -6 6 -1 11 2 17 5 13 3 -3 4 -12 1 -19z"/>
<path d="M729 3522 c-21 -18 -22 -22 -10 -63 7 -24 19 -53 27 -64 15 -20 15
-20 34 3 23 28 35 82 26 117 -8 31 -43 34 -77 7z"/>
<path d="M1006 3521 c-4 -5 3 -7 14 -4 23 6 26 13 6 13 -8 0 -17 -4 -20 -9z"/>
<path d="M4057 3515 c-4 -10 -6 -18 -5 -19 2 -1 13 -9 25 -20 22 -18 22 -18
21 13 -1 29 -17 45 -19 19 0 -7 -4 -4 -8 6 -7 19 -8 19 -14 1z"/>
<path d="M3430 3510 c-8 -5 -12 -11 -9 -14 2 -3 11 -1 19 4 8 5 12 11 9 14 -2
3 -11 1 -19 -4z"/>
<path d="M956 3485 c-16 -14 -39 -25 -55 -25 -16 0 -34 -7 -41 -15 -15 -18
-13 -21 20 -27 20 -4 33 4 69 43 47 53 51 65 7 24z"/>
<path d="M1090 3486 c0 -19 58 -89 96 -115 44 -31 128 -61 167 -61 l32 1 -45
39 c-25 22 -51 38 -57 35 -7 -2 -13 0 -13 5 0 6 -7 10 -15 10 -8 0 -15 6 -15
13 0 7 -15 29 -32 50 -29 32 -39 37 -75 37 -30 0 -43 -4 -43 -14z m91 -26 c5
0 9 -5 9 -11 0 -6 10 -20 23 -31 30 -26 0 -11 -40 21 -18 14 -33 32 -33 39 0
10 4 9 16 -2 8 -9 20 -16 25 -16z"/>
<path d="M1260 3472 c0 -10 33 -42 43 -42 15 0 6 30 -12 40 -24 12 -31 13 -31
2z"/>
<path d="M1810 3460 c-24 -19 -24 -19 -2 -13 12 3 25 10 28 15 11 18 -1 17
-26 -2z"/>
<path d="M4120 3441 c0 -5 5 -13 10 -16 6 -3 10 -2 10 4 0 5 -4 13 -10 16 -5
3 -10 2 -10 -4z"/>
<path d="M1325 3419 c-10 -15 1 -23 20 -15 9 3 13 10 10 16 -8 13 -22 13 -30
-1z"/>
<path d="M3840 3421 c0 -5 4 -11 8 -13 4 -1 27 -31 51 -65 24 -35 47 -63 51
-63 4 0 10 -20 13 -44 4 -24 17 -68 30 -98 24 -54 24 -54 6 -99 -25 -63 -24
-69 15 -69 32 0 34 2 33 35 -1 19 2 37 5 40 3 4 30 -9 60 -29 60 -40 126 -54
219 -49 68 3 73 6 84 42 5 16 4 21 -4 17 -6 -4 -20 -4 -32 -1 -31 10 -21 49
14 53 21 3 27 9 27 28 0 15 -6 24 -16 24 -13 0 -15 7 -10 35 4 22 3 35 -4 35
-5 0 -10 6 -10 13 0 8 -9 22 -19 31 -15 13 -23 15 -38 7 -10 -6 -30 -15 -45
-21 l-27 -9 15 -51 c8 -28 12 -55 9 -60 -11 -17 -25 -11 -25 12 0 20 -1 20
-19 4 -22 -20 -51 -11 -51 16 0 17 5 20 30 16 26 -4 30 -1 30 19 0 13 -5 23
-11 23 -6 0 -9 7 -6 14 6 16 -17 71 -34 81 -13 9 -11 -19 3 -33 6 -6 9 -15 5
-18 -12 -13 -112 -11 -139 2 -38 20 -46 36 -13 28 15 -4 45 -1 67 7 33 11 41
10 48 -1 4 -7 6 -20 3 -29 -4 -11 -3 -13 5 -6 6 6 9 20 6 32 -5 20 -14 23 -73
26 l-66 3 73 2 c39 1 72 5 72 8 0 3 -11 19 -25 36 -20 23 -26 26 -31 14 -3 -8
-3 -20 1 -26 4 -6 -20 -10 -71 -10 -64 0 -84 4 -118 24 -23 14 -50 36 -60 50
-19 26 -36 34 -36 17z m488 -228 c-4 -34 -43 -43 -51 -11 -8 29 -1 38 29 38
22 0 25 -4 22 -27z m-181 -6 l52 1 -35 -31 c-22 -21 -34 -41 -34 -58 0 -39
-26 -44 -58 -12 -15 15 -22 28 -15 30 8 3 7 13 -4 33 -18 36 -9 54 20 43 12
-4 45 -7 74 -6z m33 -111 c0 -2 -7 -7 -16 -10 -8 -3 -12 -2 -9 4 6 10 25 14
25 6z m140 -4 c0 -12 -23 -32 -37 -32 -7 0 -13 9 -13 20 0 15 7 20 25 20 14 0
25 -4 25 -8z m-73 -13 c17 -17 4 -39 -22 -39 -27 0 -39 14 -31 35 6 18 37 20
53 4z"/>
<path d="M1458 3379 c-17 -10 -24 -40 -12 -52 13 -12 64 15 64 35 0 13 -5 18
-14 15 -8 -3 -16 -2 -18 3 -2 5 -11 4 -20 -1z"/>
<path d="M1377 3356 c10 -13 19 -23 21 -21 7 6 -19 45 -29 45 -5 0 -2 -11 8
-24z"/>
<path d="M895 3276 c-28 -12 -77 -61 -87 -84 -1 -5 -24 -19 -51 -30 -26 -12
-50 -29 -54 -38 -3 -9 -21 -31 -40 -48 -32 -30 -72 -119 -74 -168 -1 -19 -3
-18 -10 7 -6 20 -7 3 -5 -55 7 -159 54 -233 189 -300 63 -31 72 -32 149 -28
152 8 268 85 302 199 9 29 16 89 16 136 l0 82 -72 -2 c-80 -2 -161 21 -172 50
-8 21 -2 26 33 26 17 0 29 3 28 6 -2 11 27 51 38 51 15 0 58 -67 50 -79 -4 -7
7 -11 29 -11 20 0 36 4 36 8 0 16 -58 99 -83 119 -14 11 -29 33 -33 49 -12 52
-43 91 -84 108 -48 19 -65 19 -105 2z m112 -28 c18 -13 31 -29 28 -36 -3 -7 0
-10 5 -7 6 3 15 -6 21 -22 9 -24 6 -36 -18 -81 -15 -28 -37 -55 -48 -59 -30
-9 -89 -5 -93 7 -2 6 -7 8 -11 6 -4 -3 -19 13 -33 35 -72 110 42 229 149 157z
m-268 -117 c-13 -11 -26 -17 -29 -14 -6 6 30 33 43 33 5 0 -1 -9 -14 -19z m71
-16 c0 -8 -4 -15 -10 -15 -5 0 -10 7 -10 15 0 8 5 15 10 15 6 0 10 -7 10 -15z
m37 -72 c20 -20 42 -33 58 -33 36 0 68 -19 61 -35 -3 -9 0 -12 8 -9 8 3 31 -4
52 -15 21 -12 49 -21 61 -21 27 0 31 -28 6 -37 -10 -3 -69 -30 -131 -60 -89
-41 -126 -65 -169 -108 -44 -45 -52 -59 -43 -70 15 -18 5 -35 -21 -35 -13 0
-19 7 -19 23 0 13 -9 32 -20 42 -28 25 -25 39 15 83 25 28 31 42 23 50 -15 15
-1 44 19 40 12 -2 17 -11 15 -27 l-4 -23 29 26 c15 14 31 26 36 26 4 0 34 19
65 43 56 41 56 42 29 45 -16 2 -36 -3 -46 -12 -10 -9 -29 -16 -43 -16 -14 0
-31 -7 -38 -15 -7 -8 -17 -15 -22 -15 -5 0 -40 -23 -76 -50 l-67 -51 -3 32
c-5 44 13 81 48 101 23 13 31 27 36 57 4 23 11 41 16 41 5 0 8 8 6 17 -3 19
28 39 63 39 14 0 38 -14 56 -33z m-157 -48 c0 -9 -7 -18 -16 -22 -20 -7 -38
18 -21 29 20 13 37 9 37 -7z m500 -130 c0 -16 -35 -21 -44 -6 -8 12 4 21 26
21 10 0 18 -7 18 -15z m-85 -44 c3 -5 1 -13 -5 -16 -15 -9 -43 3 -35 15 8 13
32 13 40 1z m-165 -61 c0 -13 -7 -20 -20 -20 -13 0 -20 7 -20 20 0 13 7 20 20
20 13 0 20 -7 20 -20z m113 -16 c11 -11 -5 -34 -24 -34 -18 0 -26 20 -12 33 8
9 28 9 36 1z m97 -8 c0 -8 -4 -17 -9 -21 -12 -7 -24 12 -16 25 9 15 25 12 25
-4z m-292 -38 c-2 -13 -11 -24 -21 -26 -22 -4 -35 27 -16 39 25 16 41 10 37
-13z m196 -73 c-7 -16 -32 -27 -45 -19 -16 9 -10 42 9 46 22 6 42 -10 36 -27z
m-116 3 c-6 -18 -28 -21 -28 -4 0 9 7 16 16 16 9 0 14 -5 12 -12z m-58 -23 c0
-21 -30 -31 -40 -14 -11 17 -3 29 21 29 10 0 19 -7 19 -15z"/>
<path d="M925 3233 c-34 -8 -53 -33 -57 -73 -2 -21 -2 -37 1 -35 2 3 11 -10
20 -28 14 -28 20 -32 55 -31 31 1 45 8 62 30 29 35 33 51 22 90 -5 22 -16 34
-32 38 -13 3 -30 8 -38 10 -7 2 -22 1 -33 -1z m60 -33 c7 -11 -9 -11 -45 0
-24 8 -24 8 7 9 17 1 35 -3 38 -9z m-57 -62 c25 -57 24 -65 -7 -49 -28 16 -44
48 -37 77 9 35 18 29 44 -28z m42 32 c18 -12 2 -12 -25 0 -13 6 -15 9 -5 9 8
0 22 -4 30 -9z m13 -57 c-7 -2 -19 -2 -25 0 -7 3 -2 5 12 5 14 0 19 -2 13 -5z"/>
<path d="M2366 3275 c-21 -7 -44 -19 -50 -25 -6 -6 7 -4 28 5 29 12 45 14 60
6 12 -5 61 -12 111 -14 76 -4 86 -3 65 8 -14 7 -52 15 -85 18 -33 3 -67 8 -75
11 -8 3 -32 -1 -54 -9z"/>
<path d="M1162 3245 c9 -10 28 -19 43 -21 15 -1 34 -12 42 -23 17 -24 55 -28
73 -6 11 13 8 16 -20 21 -17 4 -34 13 -37 20 -3 8 -17 11 -39 8 -20 -2 -45 1
-57 7 -21 11 -21 10 -5 -6z"/>
<path d="M2078 3230 c-28 -26 -23 -60 7 -60 22 0 25 4 25 34 0 42 -9 49 -32
26z"/>
<path d="M2271 3220 c-30 -26 -81 -90 -81 -103 0 -5 10 3 22 19 12 16 37 46
57 67 38 40 39 48 2 17z"/>
<path d="M2296 3193 c-6 -14 -5 -15 5 -6 7 7 10 15 7 18 -3 3 -9 -2 -12 -12z"/>
<path d="M1713 3188 c-36 -12 -91 -64 -78 -75 4 -5 10 -2 12 5 3 6 14 12 26
12 l22 -1 -21 -17 c-23 -19 -19 -31 18 -60 14 -11 16 -11 11 7 -6 23 29 61 57
61 29 0 60 -35 60 -68 0 -29 -26 -62 -48 -62 -21 0 -13 -17 19 -44 29 -25 31
-25 54 -8 56 40 72 134 32 193 -35 53 -104 76 -164 57z m87 -17 c0 -5 -16 -11
-36 -13 -34 -4 -50 3 -37 16 10 9 73 7 73 -3z m38 -188 c-15 -15 -31 -24 -34
-20 -8 8 34 47 50 47 6 0 -2 -12 -16 -27z"/>
<path d="M3120 3180 c0 -17 2 -19 14 -8 14 13 12 28 -5 28 -5 0 -9 -9 -9 -20z"/>
<path d="M3272 3189 c-51 -15 -96 -43 -107 -67 -5 -12 -15 -22 -21 -22 -7 0
-19 -11 -28 -25 -17 -26 -21 -46 -8 -44 18 3 32 -2 32 -12 0 -7 -10 -9 -24 -5
-14 3 -28 2 -31 -4 -8 -13 -45 -13 -45 1 0 7 -24 9 -70 6 -39 -2 -73 0 -76 5
-7 11 -21 2 -33 -20 -8 -16 4 -17 153 -19 90 0 214 -8 277 -17 148 -20 369
-47 439 -52 30 -3 62 -7 70 -11 8 -3 30 -7 49 -10 18 -2 36 -5 40 -6 3 -1 7 3
8 8 1 6 -15 15 -35 21 l-37 11 25 12 c62 30 90 129 54 189 -41 69 -132 92
-194 50 -73 -49 -87 -136 -34 -205 l25 -33 -50 0 c-28 0 -51 4 -51 8 0 5 -62
16 -137 26 -133 18 -201 35 -141 36 41 0 112 35 157 76 l41 37 -32 24 c-36 26
-118 53 -157 52 -14 0 -41 -5 -59 -10z m58 -25 c0 -17 -36 -19 -46 -3 -8 14
14 29 33 22 7 -3 13 -11 13 -19z m458 9 c-26 -4 -98 -72 -98 -93 0 -6 -4 -10
-10 -10 -23 0 -8 45 26 76 28 27 43 34 72 33 29 -2 31 -3 10 -6z m-324 -24 c6
-6 2 -14 -10 -23 -17 -13 -20 -12 -29 4 -8 14 -14 16 -28 9 -20 -12 -37 -4
-37 17 0 12 9 14 48 8 26 -3 51 -10 56 -15z m-189 -28 c7 -12 -32 -34 -45 -26
-6 3 -10 13 -10 21 0 16 45 20 55 5z m547 -18 c38 -35 9 -103 -44 -103 -24 0
-58 35 -58 60 0 26 34 60 62 60 12 0 30 -7 40 -17z m66 -8 c-3 -3 -9 2 -12 12
-6 14 -5 15 5 6 7 -7 10 -15 7 -18z m-530 -2 c5 -16 -22 -27 -44 -19 -13 5
-14 9 -4 22 15 17 41 15 48 -3z m492 -112 c0 -11 -31 -19 -49 -13 -10 3 -7 8
10 17 24 13 39 11 39 -4z"/>
<path d="M2220 3103 c-17 -26 -30 -54 -30 -62 0 -8 2 -12 5 -10 8 8 62 119 58
119 -2 0 -17 -21 -33 -47z"/>
<path d="M1621 3057 c-3 -84 57 -147 140 -147 l44 0 -33 31 c-17 16 -37 27
-42 24 -5 -3 -7 0 -4 8 5 15 -61 77 -83 77 -6 0 -14 10 -16 23 -3 13 -5 7 -6
-16z"/>
<path d="M2147 3034 c-9 -33 -17 -80 -17 -105 0 -45 48 -211 50 -174 3 40 -2
192 -9 265 l-6 75 -18 -61z"/>
<path d="M4634 3010 c-30 -12 -74 -68 -81 -102 -6 -29 -7 -29 -67 -27 -34 1
-79 -4 -100 -11 -34 -11 -41 -11 -51 4 -7 8 -15 13 -18 10 -13 -14 -57 7 -57
26 0 29 -37 45 -66 29 -13 -7 -26 -21 -30 -32 -6 -18 -13 -19 -108 -14 -55 3
-110 2 -121 -3 -14 -6 -15 -9 -5 -9 9 -1 67 -8 130 -16 63 -7 174 -16 245 -19
72 -3 166 -8 210 -11 44 -3 141 -10 216 -15 155 -11 270 -13 293 -4 9 3 16 12
16 19 0 22 -92 35 -257 36 -86 0 -161 3 -166 6 -5 3 5 13 21 23 34 21 53 65
41 98 -9 24 -13 25 -45 12z"/>
<path d="M1078 3003 c7 -3 16 -2 19 1 4 3 -2 6 -13 5 -11 0 -14 -3 -6 -6z"/>
<path d="M581 2974 c0 -11 3 -14 6 -6 3 7 2 16 -1 19 -3 4 -6 -2 -5 -13z"/>
<path d="M1541 2880 c-29 -5 -58 -14 -65 -20 -8 -10 -6 -11 14 -6 82 20 126
18 183 -8 32 -14 62 -26 67 -26 4 0 23 -12 41 -27 60 -51 105 -192 62 -194
-15 0 -15 -2 2 -9 11 -5 31 -9 44 -9 22 -1 23 2 19 43 -9 81 -64 163 -141 212
-34 22 -137 56 -162 53 -5 -1 -34 -5 -64 -9z"/>
<path d="M1890 2865 c0 -5 40 -52 89 -103 77 -81 93 -93 113 -87 28 9 24 5 32
33 7 19 4 22 -23 22 -21 0 -40 10 -63 33 -32 33 -65 52 -81 48 -5 -1 -11 8
-14 19 -3 11 -10 17 -15 14 -5 -3 -16 2 -23 12 -8 11 -14 15 -15 9z"/>
<path d="M1475 2805 c-59 -29 -112 -86 -120 -129 -8 -41 9 -84 37 -96 22 -10
22 -10 -4 -7 -15 2 -27 1 -26 -2 2 -19 -4 -22 -19 -10 -11 10 -14 10 -9 2 4
-7 3 -13 -3 -13 -35 0 -11 146 34 204 33 44 33 67 0 36 -39 -37 -84 -137 -87
-195 -1 -34 -7 -52 -17 -57 -35 -15 60 -5 174 17 71 15 101 23 73 22 -25 -1
-44 1 -41 6 2 4 -7 7 -21 7 -31 0 -56 9 -56 21 0 5 23 9 50 9 47 0 50 2 50 25
0 14 5 25 12 25 6 0 1 11 -12 26 -21 21 -22 27 -10 34 19 12 40 -14 40 -47 0
-19 5 -23 33 -23 l32 0 -28 -15 c-31 -16 -83 -55 -74 -55 3 0 23 11 43 25 39
27 78 31 133 15 19 -5 37 -8 39 -6 2 3 -14 10 -37 17 -23 7 -41 16 -41 20 0
17 41 20 62 5 30 -22 52 -20 93 7 43 27 39 47 -16 98 -70 64 -191 79 -284 34z
m113 -59 c2 -9 1 -24 -3 -33 -5 -14 -8 -13 -21 6 -17 24 -12 55 9 49 6 -3 14
-12 15 -22z m82 3 c0 -17 -20 -49 -30 -49 -6 0 -10 14 -10 30 0 23 4 30 20 30
11 0 20 -5 20 -11z m71 -58 c-16 -29 -45 -28 -35 2 4 12 12 25 18 29 18 12 29
-8 17 -31z m-290 -21 c24 -13 25 -40 2 -40 -31 0 -42 15 -34 45 2 8 10 6 32
-5z"/>
<path d="M231 2748 c-1 -27 4 -48 9 -48 12 0 12 47 0 75 -6 15 -9 8 -9 -27z"/>
<path d="M2171 2714 c0 -11 3 -14 6 -6 3 7 2 16 -1 19 -3 4 -6 -2 -5 -13z"/>
<path d="M466 2647 c-35 -45 -35 -90 -1 -105 31 -14 65 -15 84 -3 30 19 -8
141 -44 141 -8 0 -25 -15 -39 -33z"/>
<path d="M3967 2660 c-32 -4 -61 -10 -64 -14 -10 -10 47 -6 117 9 70 14 41 17
-53 5z"/>
<path d="M3807 2639 c8 -8 22 -8 50 -1 l38 10 -49 1 c-37 1 -47 -2 -39 -10z"/>
<path d="M2340 2620 c-30 -4 -47 -7 -37 -8 22 -2 22 -7 -5 -43 -31 -42 -30
-102 2 -151 16 -25 33 -38 47 -38 12 0 25 -4 28 -10 3 -5 26 -10 49 -10 38 0
48 5 80 40 32 35 36 46 36 93 0 57 -20 97 -48 97 -15 -1 -15 -2 -1 -13 22 -17
34 -68 17 -78 -9 -6 -9 -9 -1 -9 18 0 -5 -58 -27 -70 -36 -19 -42 -10 -15 22
22 26 26 39 21 66 -13 84 -97 96 -153 22 -10 -13 -12 -13 -18 3 -5 11 -1 25
10 37 21 23 80 44 101 36 18 -7 137 5 129 12 -8 9 -152 10 -215 2z m117 -96
c15 -24 15 -29 2 -53 -27 -48 -109 -32 -109 22 0 56 76 77 107 31z"/>
<path d="M3568 2623 c12 -2 32 -2 45 0 12 2 2 4 -23 4 -25 0 -35 -2 -22 -4z"/>
<path d="M1740 2610 c22 -7 20 -8 -15 -10 -38 -2 -39 -3 -10 -9 17 -4 40 -5
53 -3 21 4 21 5 5 18 -10 7 -27 13 -38 13 -16 -1 -15 -2 5 -9z"/>
<path d="M3448 2613 c18 -2 45 -2 60 0 15 2 0 4 -33 4 -33 0 -45 -2 -27 -4z"/>
<path d="M2168 2590 c-7 -24 -3 -38 8 -28 3 4 4 17 2 30 l-3 23 -7 -25z"/>
<path d="M2990 2600 c17 -11 71 -11 115 0 22 6 8 8 -50 9 -55 0 -75 -2 -65 -9z"/>
<path d="M3253 2603 c20 -2 54 -2 75 0 20 2 3 4 -38 4 -41 0 -58 -2 -37 -4z"/>
<path d="M1613 2583 c9 -2 23 -2 30 0 6 3 -1 5 -18 5 -16 0 -22 -2 -12 -5z"/>
<path d="M3455 2570 c3 -5 12 -10 20 -10 8 0 17 5 20 10 4 6 -5 10 -20 10 -15
0 -24 -4 -20 -10z"/>
<path d="M1740 2565 c-8 -2 -32 -6 -53 -10 -21 -3 -35 -10 -32 -14 7 -12 -11
-18 -78 -26 -44 -6 -57 -4 -57 6 0 10 -3 10 -11 2 -7 -7 -24 -10 -38 -7 -27 4
-62 -18 -73 -47 -12 -32 22 -78 81 -106 48 -24 68 -28 136 -27 85 1 117 12
174 60 17 14 31 30 31 36 0 6 -14 -4 -32 -21 -17 -17 -51 -38 -75 -47 -80 -31
-240 -3 -272 47 l-13 22 29 -20 c15 -11 42 -24 58 -28 44 -12 128 -15 140 -5
5 5 26 10 45 12 25 2 38 10 45 25 10 23 52 46 75 41 8 -2 14 10 17 32 3 19 9
42 14 50 8 11 9 8 6 -12 -2 -16 -1 -28 4 -28 4 0 2 -14 -4 -32 -18 -49 -88
-114 -144 -132 -63 -21 -137 -31 -160 -21 -10 5 -27 9 -38 10 -44 4 -114 43
-154 86 -24 26 -33 79 -14 79 7 0 13 4 13 8 0 4 -16 6 -35 4 -19 -2 -35 -9
-35 -16 2 -40 87 -142 148 -176 l39 -22 -1 -102 c-1 -105 11 -145 64 -214 l18
-22 52 57 c29 32 71 82 94 112 23 29 50 65 61 80 33 43 84 89 91 82 4 -3 4 2
1 12 -4 11 -3 16 3 12 6 -4 17 1 26 9 8 9 12 16 7 16 -4 0 7 13 24 29 18 16
29 31 26 35 -3 3 -21 -9 -41 -27 -75 -69 -142 -135 -142 -140 0 -13 -50 -54
-101 -81 -30 -17 -67 -42 -84 -58 -36 -34 -43 -35 -50 -5 -8 30 -10 118 -3
137 16 47 19 49 73 49 117 -2 236 71 294 179 6 12 20 22 31 22 10 0 21 6 23
13 3 6 6 2 6 -11 1 -12 8 -25 17 -29 15 -6 15 -8 -2 -20 -14 -10 -15 -16 -6
-25 9 -9 12 -9 12 1 0 8 6 11 16 7 8 -3 12 -2 9 4 -6 9 8 14 29 11 11 -2 36
19 36 31 0 5 -34 25 -76 45 -61 29 -75 40 -71 54 5 17 -2 19 -76 18 -45 -1
-89 -3 -97 -4z m46 -49 c15 -12 16 -17 7 -27 -10 -10 -15 -9 -28 1 -16 13 -21
40 -7 40 5 0 17 -6 28 -14z m-270 -92 c-3 -8 -10 -14 -16 -14 -20 0 -22 31 -4
52 l19 20 3 -22 c2 -12 1 -28 -2 -36z m202 44 c17 -17 15 -48 -3 -48 -9 0 -19
10 -24 23 -13 34 3 49 27 25z m-68 -29 c11 -26 11 -32 -1 -40 -24 -15 -29 -10
-29 31 0 48 13 52 30 9z m-66 -5 c10 -26 7 -44 -8 -44 -17 0 -28 24 -20 45 8
19 20 19 28 -1z m-77 -211 c-3 -10 -5 -2 -5 17 0 19 2 27 5 18 2 -10 2 -26 0
-35z m98 -178 c0 -13 -8 -21 -22 -23 -17 -3 -23 2 -23 16 0 10 3 22 7 26 13
13 38 1 38 -19z"/>
<path d="M2865 2550 c3 -5 8 -10 11 -10 2 0 4 5 4 10 0 6 -5 10 -11 10 -5 0
-7 -4 -4 -10z"/>
<path d="M1553 2533 c9 -2 25 -2 35 0 9 3 1 5 -18 5 -19 0 -27 -2 -17 -5z"/>
<path d="M2748 2518 c-12 -12 -32 -18 -61 -18 -37 0 -46 -4 -57 -26 -17 -32
-3 -44 52 -44 30 0 45 8 82 45 26 25 55 45 65 45 11 0 22 4 25 8 3 5 -11 8
-29 8 -19 -1 -35 -5 -35 -10 0 -5 -6 -4 -12 1 -9 7 -19 4 -30 -9z"/>
<path d="M1033 2523 c9 -2 25 -2 35 0 9 3 1 5 -18 5 -19 0 -27 -2 -17 -5z"/>
<path d="M877 2513 c18 -2 50 -2 70 0 21 2 7 4 -32 4 -38 0 -55 -2 -38 -4z"/>
<path d="M654 2494 c-17 -14 -18 -15 -1 -10 10 3 37 9 60 12 31 4 38 3 27 -5
-12 -8 -5 -11 29 -11 42 0 43 1 25 15 -26 20 -115 19 -140 -1z"/>
<path d="M3857 2490 c-18 -14 -29 -38 -40 -88 -19 -85 -11 -129 32 -171 17
-17 31 -36 31 -43 1 -51 44 -42 80 18 19 30 21 43 15 87 -4 29 -8 82 -8 118
-1 39 -8 73 -16 83 -18 22 -63 20 -94 -4z"/>
<path d="M335 2489 c-7 -11 48 -11 120 0 46 7 44 8 -32 9 -46 0 -85 -3 -88 -9z"/>
<path d="M3465 2485 c-27 -7 -43 -14 -35 -15 8 -1 2 -6 -15 -11 -21 -6 -15 -6
22 -3 69 8 135 -17 191 -70 84 -80 107 -171 72 -288 -21 -72 -23 -74 -95 -125
-110 -79 -168 -85 -298 -30 l-38 17 3 -28 c3 -23 11 -30 64 -48 34 -11 73 -28
88 -37 23 -15 29 -16 49 -3 53 33 115 26 148 -16 l17 -21 11 21 c9 17 7 26
-14 50 l-25 30 53 54 c66 65 92 132 91 228 -1 74 -29 148 -71 192 -22 23 -24
30 -13 43 7 8 11 17 9 18 -23 15 -62 30 -85 32 -16 1 -38 5 -49 10 -11 4 -22
9 -25 10 -3 1 -27 -4 -55 -10z m159 -610 c24 -36 19 -42 -9 -11 -27 29 -30 36
-16 36 5 0 16 -11 25 -25z"/>
<path d="M120 2481 l-45 -7 55 -4 c31 -3 71 0 90 7 l35 12 -45 -1 c-25 -1 -65
-4 -90 -7z"/>
<path d="M3264 2449 c-80 -56 -142 -156 -144 -231 0 -16 -3 -28 -6 -28 -3 0
-26 22 -51 50 -41 46 -164 120 -199 120 -19 0 -57 -57 -44 -65 6 -4 14 -4 17
-1 3 3 15 0 27 -7 11 -6 28 -12 36 -13 8 -1 29 -7 45 -14 l30 -13 -35 -8 c-68
-14 -95 -26 -95 -40 -1 -29 -15 -40 -36 -28 -16 8 -25 7 -41 -8 -19 -17 -20
-17 -35 2 -11 14 -17 16 -20 8 -3 -7 -9 -13 -14 -13 -4 0 -6 6 -3 13 3 9 -9
18 -37 26 -39 12 -41 14 -25 29 12 13 20 14 33 6 18 -11 83 2 83 17 0 4 8 5
19 2 10 -3 22 0 26 6 11 19 -19 22 -58 6 -41 -17 -159 -20 -188 -5 -41 23 -16
-9 37 -45 31 -21 75 -53 97 -71 31 -25 44 -30 54 -22 17 14 29 2 15 -15 -10
-12 43 -63 230 -219 26 -22 26 -22 24 -1 -1 12 14 20 55 31 62 15 68 25 70
111 0 32 2 34 12 17 32 -50 50 -67 60 -57 6 6 1 25 -17 55 -20 34 -26 59 -27
103 0 83 1 89 51 188 37 73 53 94 85 112 22 13 51 23 64 23 29 0 23 9 -11 15
-17 3 -42 -8 -84 -36z m-327 -130 c43 -17 13 -21 -33 -5 -27 10 -32 15 -17 15
12 1 34 -4 50 -10z m48 -108 c0 -8 -4 -16 -10 -18 -16 -5 -38 14 -30 26 9 16
40 9 40 -8z m83 -68 c4 -16 -22 -27 -43 -19 -22 8 -6 38 18 34 11 -2 22 -9 25
-15z m-158 -29 c0 -10 -7 -14 -22 -12 -32 5 -35 28 -4 28 17 0 26 -5 26 -16z
m90 -29 c0 -8 -9 -15 -20 -15 -11 0 -20 7 -20 15 0 8 9 15 20 15 11 0 20 -7
20 -15z m90 -46 c0 -16 -31 -22 -43 -10 -9 9 -9 14 2 20 16 10 41 4 41 -10z
m-200 3 c0 -14 -11 -21 -26 -15 -8 3 -11 9 -8 14 7 11 34 12 34 1z m108 -54
c-3 -7 -11 -13 -18 -13 -7 0 -15 6 -17 13 -3 7 4 12 17 12 13 0 20 -5 18 -12z"/>
<path d="M2171 2436 c-1 -26 2 -37 9 -30 6 6 6 21 1 39 -9 30 -9 30 -10 -9z"/>
<path d="M345 2415 c-8 -54 14 -140 45 -173 26 -28 85 -31 92 -4 8 31 -9 192
-22 207 -8 9 -30 15 -60 15 l-48 0 -7 -45z"/>
<path d="M611 2441 c-22 -40 -9 -110 28 -143 79 -70 191 -31 207 73 3 19 1 46
-5 60 -9 26 -12 27 -95 28 -83 1 -86 1 -92 -24 -8 -33 -22 -32 -26 3 l-3 27
-14 -24z m153 -17 c21 -20 20 -53 -1 -76 -20 -22 -56 -23 -77 -2 -19 18 -21
65 -4 82 17 17 64 15 82 -4z m39 -92 c-11 -15 -31 -28 -44 -30 -23 -2 -23 -2
3 13 15 8 32 25 39 36 6 11 13 18 17 15 3 -4 -3 -19 -15 -34z"/>
<path d="M2048 2419 c-17 -18 -17 -19 1 -19 11 0 23 -5 26 -10 10 -16 -4 -48
-23 -54 -9 -3 -3 -4 14 -2 32 2 32 2 16 -22 -15 -24 -15 -24 6 -18 30 10 42
-20 16 -38 -26 -19 -42 -9 -46 27 -2 26 -8 33 -33 38 -16 4 -23 7 -14 8 12 1
15 8 12 26 -5 23 -7 24 -32 10 -33 -17 -91 -73 -91 -86 0 -6 4 -7 10 -4 6 3 7
-1 4 -9 -7 -19 -21 -21 -27 -3 -5 15 -137 -117 -137 -138 0 -8 -4 -15 -10 -15
-5 0 -35 -33 -67 -72 -32 -40 -64 -77 -70 -81 -18 -11 -16 -30 2 -23 9 3 15 0
15 -10 0 -8 8 -18 18 -21 9 -4 31 -17 48 -30 56 -42 83 -46 180 -27 179 33
242 90 304 275 18 53 21 78 16 152 -5 92 -16 131 -16 61 -1 -38 -1 -39 -13
-13 -13 30 -79 119 -87 118 -3 0 -13 -9 -22 -20z m-10 -121 c14 -14 16 -44 2
-53 -5 -3 -20 -3 -33 0 -27 7 -31 34 -8 52 20 16 24 16 39 1z m36 -101 c-7
-19 -54 -23 -54 -5 0 6 8 20 17 30 14 16 19 16 30 5 8 -7 11 -21 7 -30z m-86
-6 c-2 -24 -6 -28 -25 -26 -13 1 -26 5 -29 8 -11 11 17 47 37 47 15 0 19 -6
17 -29z m-71 -17 c3 -9 0 -20 -7 -24 -7 -4 -9 -13 -6 -19 14 -22 -12 -10 -27
13 -12 17 -13 26 -4 35 16 16 37 14 44 -5z m103 -24 c0 -5 -2 -10 -4 -10 -3 0
-8 5 -11 10 -3 6 -1 10 4 10 6 0 11 -4 11 -10z m88 -13 c-4 -29 -42 -31 -46
-2 -2 16 3 21 23 23 22 2 26 -2 23 -21z m-228 -33 c0 -10 -7 -14 -22 -12 -32
5 -35 28 -4 28 17 0 26 -5 26 -16z m120 6 c0 -3 -12 -13 -26 -24 -18 -13 -29
-15 -36 -8 -19 19 -1 43 32 40 16 -1 30 -5 30 -8z m65 -11 c4 -5 -1 -19 -11
-30 -16 -17 -19 -18 -32 -5 -13 12 -13 18 -2 30 14 18 36 21 45 5z m-250 -34
c-5 -2 -27 -6 -48 -10 -32 -5 -41 -12 -53 -41 -8 -19 -19 -34 -24 -34 -19 0
-10 37 15 64 20 21 32 26 72 25 26 0 44 -2 38 -4z m115 -53 c0 -7 -4 -10 -10
-7 -5 3 -10 16 -10 28 0 18 2 19 10 7 5 -8 10 -21 10 -28z m132 4 c10 -15 -3
-36 -23 -36 -10 0 -19 4 -19 10 0 5 -13 7 -30 4 -22 -5 -30 -3 -30 8 0 8 2 17
5 20 9 9 90 4 97 -6z m-282 -71 c0 -8 -9 -15 -20 -15 -11 0 -20 7 -20 15 0 8
9 15 20 15 11 0 20 -7 20 -15z m100 -5 c0 -22 -33 -60 -52 -60 -6 0 -2 8 9 18
11 9 23 27 27 40 9 27 16 28 16 2z m85 11 c6 -10 -21 -41 -36 -41 -10 0 -12
33 -2 43 9 10 31 9 38 -2z"/>
<path d="M1193 2415 c-21 -23 -15 -35 17 -35 31 0 35 6 24 34 -8 20 -25 20
-41 1z"/>
<path d="M3330 2412 c-52 -25 -99 -71 -126 -124 -22 -44 -23 -49 -10 -93 16
-53 32 -75 53 -75 13 0 13 3 3 15 -9 11 -10 19 -3 26 14 14 59 7 56 -9 -2 -6
4 -12 12 -12 8 0 15 -4 15 -10 0 -5 -7 -10 -15 -10 -30 0 -65 -24 -65 -44 0
-18 1 -18 13 -3 15 20 67 34 67 18 0 -6 4 -11 9 -11 4 0 11 23 14 51 6 51 41
131 78 178 26 32 25 97 0 111 -28 14 -61 12 -101 -8z m60 -57 c0 -28 -15 -34
-24 -9 -10 25 -7 34 9 34 9 0 15 -9 15 -25z m-61 -54 c6 -10 8 -21 5 -24 -9
-9 -44 16 -44 30 0 20 28 15 39 -6z m-30 -65 c7 -8 8 -17 3 -20 -15 -9 -52 5
-52 20 0 18 34 18 49 0z"/>
<path d="M2730 2361 c-52 -8 -134 -43 -145 -62 -6 -8 -4 -10 6 -6 102 44 139
57 166 57 17 0 35 5 38 10 7 11 3 11 -65 1z"/>
<path d="M3525 2350 c-14 -15 -20 -43 -24 -103 -7 -90 -17 -110 -81 -162 -49
-39 -62 -60 -54 -90 9 -38 58 -63 104 -55 24 4 43 3 50 -4 8 -8 10 -7 5 5 -4
12 1 18 17 22 13 4 39 20 58 37 l35 30 -59 -35 c-75 -44 -120 -53 -155 -32
-14 8 -27 20 -29 26 -7 20 40 11 58 -11 15 -20 20 -21 35 -8 12 10 15 22 10
47 -6 35 4 43 25 18 14 -17 46 -20 55 -5 3 5 1 19 -5 30 -9 16 -8 20 6 20 15
0 14 4 -6 25 -27 29 -22 40 15 31 20 -5 25 -11 20 -26 -4 -12 -2 -20 4 -20 6
0 12 8 12 18 2 33 4 37 29 70 25 33 25 33 32 10 5 -14 6 -5 4 27 -1 28 -11 67
-21 88 -29 63 -104 87 -140 47z m80 -71 c0 -8 -12 -15 -30 -17 -30 -4 -30 -4
-11 17 21 23 41 23 41 0z m15 -79 c0 -21 -24 -27 -50 -10 -12 7 -10 11 10 19
36 14 40 13 40 -9z m-62 -140 c10 -17 10 -21 -4 -27 -16 -6 -44 19 -44 39 0
16 36 7 48 -12z m-78 -39 c15 -29 12 -41 -10 -41 -16 0 -20 7 -20 30 0 34 14
39 30 11z"/>
<path d="M2700 2320 c-25 -10 -38 -19 -30 -19 8 0 33 8 55 18 52 25 33 25 -25
1z"/>
<path d="M2492 2178 c-11 -29 -23 -67 -26 -85 -4 -17 -14 -37 -22 -44 -8 -6
-14 -17 -14 -24 0 -10 -9 -11 -37 -4 -25 5 -39 5 -42 -3 -2 -6 -6 -6 -11 2 -5
7 -23 14 -42 14 -18 1 -39 5 -45 9 -8 5 -13 3 -13 -7 0 -9 19 -25 42 -37 36
-18 53 -21 114 -16 l72 7 6 -34 c17 -91 104 -209 185 -250 29 -15 31 -15 31 0
0 29 34 88 73 125 28 28 53 41 93 50 30 7 54 16 54 20 0 15 -120 119 -137 119
-5 0 -19 13 -31 30 -12 16 -35 36 -51 45 -27 14 -29 13 -24 -5 3 -11 0 -27 -7
-35 -6 -8 -9 -23 -5 -34 5 -16 0 -24 -19 -32 -27 -13 -38 -42 -30 -77 5 -17 1
-24 -21 -32 -14 -5 -28 -10 -31 -10 -9 0 -36 74 -40 110 -7 58 -15 75 -26 59
-17 -26 3 104 23 143 22 42 23 48 10 48 -5 0 -18 -24 -29 -52z m216 -240 c-7
-19 -38 -22 -38 -4 0 10 9 16 21 16 12 0 19 -5 17 -12z m125 6 c9 -10 -4 -34
-18 -34 -17 0 -28 17 -20 30 7 11 28 13 38 4z m-83 -74 c0 -13 -7 -20 -19 -20
-25 0 -38 20 -20 31 23 15 39 10 39 -11z m-102 -57 c-2 -10 -12 -18 -23 -18
-11 0 -21 8 -23 18 -3 13 3 17 23 17 20 0 26 -4 23 -17z"/>
<path d="M2540 2190 c0 -5 5 -10 10 -10 6 0 10 5 10 10 0 6 -4 10 -10 10 -5 0
-10 -4 -10 -10z"/>
<path d="M571 2174 c-14 -10 -21 -26 -21 -49 0 -50 9 -65 40 -65 21 0 30 7 40
29 26 65 -11 119 -59 85z"/>
<path d="M4200 2098 c-16 -90 -71 -280 -107 -368 -42 -101 -113 -217 -113
-183 0 4 7 33 15 63 18 69 19 78 1 60 -23 -24 -78 -172 -72 -195 6 -23 -63
-145 -113 -200 -15 -16 -35 -43 -45 -58 -9 -15 -28 -33 -42 -39 -13 -6 -24
-18 -25 -27 0 -17 -127 -131 -182 -166 -18 -10 -34 -22 -37 -25 -3 -3 -40 -32
-82 -63 -42 -32 -78 -62 -80 -66 -5 -15 -124 -90 -225 -142 -193 -99 -370
-136 -730 -155 -115 -5 -133 -4 -133 9 0 10 15 17 45 22 54 8 50 25 -6 25 -21
0 -39 4 -39 9 0 10 -38 7 -132 -11 -32 -6 -58 -14 -58 -18 0 -4 37 -10 82 -14
114 -9 119 -18 21 -41 -133 -32 -313 -5 -533 80 -52 20 -127 45 -167 55 -39
11 -80 23 -90 29 -10 5 -47 24 -82 41 -36 17 -83 44 -105 59 -23 16 -81 50
-131 76 -105 55 -285 172 -285 185 0 5 12 22 26 39 14 17 21 31 16 31 -6 0
-22 -14 -36 -32 l-25 -32 -48 38 c-75 58 -171 171 -257 301 -66 99 -82 132
-103 209 -28 106 -92 216 -125 216 -6 0 1 -15 14 -32 35 -48 56 -97 78 -185
11 -43 28 -105 40 -138 24 -74 5 -53 -44 47 -19 37 -36 64 -39 61 -4 -3 7 -31
23 -62 28 -52 40 -73 95 -160 10 -17 23 -31 27 -31 4 0 8 -5 8 -11 0 -17 95
-134 180 -223 79 -82 181 -170 290 -248 36 -26 70 -51 75 -55 6 -4 28 -17 50
-28 22 -11 47 -25 55 -32 44 -34 279 -136 385 -167 6 -2 24 -8 40 -15 40 -17
177 -51 245 -61 30 -5 84 -16 120 -25 83 -20 404 -30 560 -17 119 10 129 12
220 30 30 6 66 13 80 15 14 2 32 6 40 9 8 3 53 15 100 26 112 27 196 57 193
70 -1 5 6 8 16 5 10 -2 46 10 80 29 34 18 88 47 119 63 71 37 194 119 258 171
27 21 57 46 67 54 103 81 197 172 190 183 -3 5 -2 7 4 4 10 -6 130 135 190
223 64 95 114 188 93 175 -6 -3 -10 -13 -10 -21 0 -8 -3 -14 -7 -14 -5 0 -17
-18 -27 -40 -11 -22 -33 -55 -50 -73 -17 -18 -32 -39 -34 -46 -1 -7 -8 -19
-15 -27 -7 -7 -32 -38 -57 -68 -44 -53 -68 -72 -78 -61 -3 2 22 40 55 82 66
88 102 144 160 253 22 41 66 118 98 170 70 113 91 172 110 294 18 122 29 236
22 236 -3 0 -11 -33 -17 -72z m-3608 -962 c45 -43 74 -80 75 -93 1 -13 0 -23
-3 -23 -9 0 -183 184 -200 212 -17 26 60 -31 128 -96z m3158 -36 c0 -38 -287
-271 -464 -377 -39 -23 -76 -46 -82 -50 -23 -18 -56 -34 -60 -30 -3 2 26 22
63 45 37 22 93 60 125 83 31 24 67 52 80 61 62 45 311 258 316 270 5 11 22 10
22 -2z m-2965 -153 c35 -30 105 -76 157 -102 51 -26 95 -51 98 -54 3 -4 34
-30 68 -59 35 -28 61 -52 57 -52 -22 0 -241 132 -290 174 -16 14 -33 26 -36
26 -11 0 -87 65 -109 93 -33 41 -14 33 55 -26z m581 -332 c27 -8 96 -29 154
-46 151 -45 188 -58 165 -58 -11 0 -51 8 -90 19 -38 11 -83 20 -100 20 -23 0
-27 3 -15 10 12 8 12 10 -5 11 -38 2 -80 10 -85 18 -3 4 -27 14 -55 23 -62 21
-35 23 31 3z m1413 -100 c-7 -6 -119 -26 -149 -27 -14 0 -27 -3 -30 -7 -5 -7
-227 -31 -287 -31 -18 0 -33 4 -33 9 0 4 39 11 88 15 48 3 134 15 192 25 96
17 230 27 219 16z m-1024 -15 l20 -9 -20 0 c-11 0 -27 4 -35 9 -13 9 -13 10 0
9 8 0 24 -4 35 -9z m90 -20 l20 -9 -20 0 c-11 0 -29 4 -40 9 l-20 9 20 0 c11
0 29 -4 40 -9z m320 -22 c7 -7 -27 -9 -110 -5 -169 7 -195 23 -32 19 73 -2
136 -8 142 -14z"/>
<path d="M2582 2148 c3 -7 15 -15 28 -16 21 -3 22 -2 11 12 -16 19 -44 21 -39
4z"/>
<path d="M3671 2144 c0 -11 3 -14 6 -6 3 7 2 16 -1 19 -3 4 -6 -2 -5 -13z"/>
<path d="M3661 2094 c0 -11 3 -14 6 -6 3 7 2 16 -1 19 -3 4 -6 -2 -5 -13z"/>
<path d="M3901 2071 c-12 -12 -21 -28 -21 -36 0 -8 -9 -33 -21 -55 -24 -46
-20 -70 13 -70 35 0 72 63 73 124 0 56 -14 67 -44 37z"/>
<path d="M1273 2045 c21 -20 40 -35 43 -32 3 2 -14 19 -38 37 l-43 33 38 -38z"/>
<path d="M3305 2035 c-16 -14 -25 -25 -20 -25 6 0 24 11 40 25 17 13 26 24 20
24 -5 0 -23 -11 -40 -24z"/>
<path d="M1341 2020 c-1 -24 11 -36 57 -60 23 -12 42 -24 42 -26 0 -10 -43
-45 -78 -63 -31 -16 -51 -19 -98 -14 -32 3 -68 11 -79 16 -11 6 -25 10 -32 9
-7 -2 -17 7 -23 18 -11 20 -11 20 -32 0 -23 -21 -41 -18 -31 5 4 11 1 13 -11
9 -9 -3 -23 -1 -31 6 -27 23 -15 2 20 -34 75 -77 168 -96 280 -57 98 35 136
82 134 165 -2 32 -3 35 -6 11 -7 -57 -10 -58 -57 -26 -24 17 -47 36 -49 43 -4
9 -6 8 -6 -2z m-227 -144 c-3 -9 -10 -13 -16 -10 -5 3 -4 12 3 20 15 18 22 13
13 -10z m153 -42 c-3 -3 -12 -4 -19 -1 -8 3 -5 6 6 6 11 1 17 -2 13 -5z"/>
<path d="M980 1970 c0 -5 5 -10 11 -10 5 0 7 5 4 10 -3 6 -8 10 -11 10 -2 0
-4 -4 -4 -10z"/>
<path d="M484 1878 c8 -68 51 -146 93 -169 12 -7 34 -30 48 -51 28 -43 43 -44
62 -7 17 32 16 70 -3 132 -26 85 -32 97 -61 108 -16 6 -46 20 -69 30 -71 33
-78 29 -70 -43z"/>
<path d="M1198 1918 c6 -6 18 -8 28 -6 14 3 12 5 -9 10 -19 3 -25 2 -19 -4z"/>
<path d="M3753 1860 c-7 -11 -31 -32 -54 -47 -39 -26 -40 -28 -35 -67 4 -23 9
-71 12 -108 6 -63 8 -68 29 -68 43 0 56 25 53 104 -3 66 -1 76 25 109 33 44
34 90 2 95 -12 1 -25 -6 -32 -18z"/>
<path d="M3036 1852 c-8 -13 50 -65 63 -58 17 11 13 30 -8 43 -15 10 -21 10
-24 0 -3 -7 -6 -4 -6 6 -1 18 -16 23 -25 9z"/>
<path d="M141 1824 c0 -11 3 -14 6 -6 3 7 2 16 -1 19 -3 4 -6 -2 -5 -13z"/>
<path d="M4182 1805 c-7 -14 -12 -31 -12 -38 1 -7 7 3 16 22 17 39 13 54 -4
16z"/>
<path d="M808 1797 c24 -25 28 -43 11 -49 -6 -2 4 -18 21 -36 l31 -33 19 23
c13 16 15 25 7 30 -6 4 -15 2 -20 -5 -6 -9 -7 -8 -6 3 4 36 -3 49 -37 69 -46
27 -53 27 -26 -2z"/>
<path d="M2262 1792 c-23 -18 -23 -23 -19 -120 2 -56 9 -108 16 -115 6 -8 8
-22 5 -32 -6 -15 -4 -16 13 -6 17 8 24 7 34 -6 12 -14 12 -17 0 -21 -33 -11
-51 -42 -51 -91 0 -40 3 -50 20 -54 11 -3 20 -13 20 -22 0 -9 -9 -19 -20 -22
-20 -5 -29 -43 -10 -43 19 0 10 -38 -10 -43 -14 -4 -20 -14 -20 -35 0 -25 3
-29 20 -25 15 4 20 0 20 -16 0 -24 -10 -27 -28 -9 -9 9 -12 -2 -12 -50 0 -79
20 -80 103 -4 l27 26 0 -48 c0 -142 170 -198 246 -81 21 32 20 109 -1 142 -42
63 -126 80 -189 38 l-36 -24 16 37 c9 20 22 55 29 76 20 67 82 96 129 61 14
-11 22 -11 37 -2 10 6 19 19 19 27 0 12 -2 13 -9 1 -5 -7 -14 -10 -20 -7 -6 4
-11 2 -11 -4 0 -6 -5 -8 -10 -5 -6 4 -8 9 -6 13 2 4 -16 5 -40 3 -33 -2 -45 1
-50 13 -3 9 -12 16 -18 16 -7 0 -26 40 -43 88 l-30 88 38 33 c53 44 68 95 45
155 -22 58 -65 86 -132 86 -32 0 -57 -7 -72 -18z m78 -22 c0 -5 -9 -10 -20
-10 -11 0 -29 -9 -40 -20 -24 -24 -30 -25 -30 -6 0 8 10 22 22 30 25 18 68 21
68 6z m38 -46 c42 -29 17 -114 -34 -114 -27 0 -74 40 -74 63 0 24 40 67 64 67
12 0 32 -7 44 -16z m58 -100 c-10 -14 -20 -23 -23 -20 -3 2 -14 -4 -26 -15
-24 -22 -41 -25 -35 -6 3 6 22 21 43 32 21 11 40 26 43 33 2 7 6 11 9 8 3 -3
-2 -17 -11 -32z m-27 -220 c6 -20 6 -34 0 -34 -5 0 -9 11 -9 25 0 14 -5 25
-11 25 -7 0 -9 -10 -7 -25 3 -14 1 -25 -3 -25 -5 0 -9 7 -9 16 0 11 -6 13 -19
9 -23 -7 -34 6 -25 30 5 12 15 16 35 13 16 -3 29 -1 29 4 0 4 -4 8 -10 8 -5 0
-10 10 -10 23 0 20 1 20 15 -6 8 -15 19 -44 24 -63z m-18 -64 c5 0 9 -7 9 -15
0 -8 -4 -15 -9 -15 -5 0 -16 -3 -25 -6 -12 -5 -16 0 -16 21 0 21 4 26 16 21 9
-3 20 -6 25 -6z m26 -12 c-3 -8 -6 -5 -6 6 -1 11 2 17 5 13 3 -3 4 -12 1 -19z
m-1 -59 c-5 -39 -36 -63 -51 -39 -9 14 13 50 30 50 8 0 15 5 15 10 0 6 2 10 5
10 2 0 3 -14 1 -31z m-56 -54 c0 -19 -36 -39 -45 -25 -11 18 3 40 25 40 11 0
20 -7 20 -15z m-21 -101 c-12 -15 -39 -8 -39 11 0 18 22 25 38 12 9 -7 9 -13
1 -23z m171 20 c0 -2 -15 -11 -32 -20 -41 -21 -48 -31 -48 -69 1 -31 37 -82
61 -86 46 -6 87 26 101 79 6 21 2 32 -19 54 -28 29 -29 45 -2 25 44 -33 52
-105 15 -142 -54 -54 -150 -38 -174 29 -22 61 -8 107 42 133 17 9 56 7 56 -3z
m40 -53 c32 -61 -37 -123 -84 -75 -19 18 -21 65 -4 82 20 20 76 15 88 -7z"/>
<path d="M3020 1772 c0 -17 -55 -74 -63 -65 -3 2 -7 -5 -10 -17 -6 -25 1 -26
22 -2 9 9 33 30 54 45 31 23 36 32 26 43 -16 19 -29 18 -29 -4z"/>
<path d="M3100 1786 c0 -3 16 -22 36 -43 19 -21 49 -55 67 -75 17 -21 36 -38
43 -38 6 0 17 20 24 45 10 36 10 48 0 60 -10 12 -16 13 -26 4 -11 -9 -14 -8
-14 0 0 7 -8 11 -18 9 -11 -2 -26 3 -36 11 -14 12 -16 12 -10 -3 9 -24 -5 -20
-32 9 -22 23 -34 31 -34 21z m96 -73 c-7 -7 -26 7 -26 19 0 6 6 6 15 -2 9 -7
13 -15 11 -17z"/>
<path d="M1416 1754 c-4 -9 -5 -18 -4 -19 2 -2 44 -11 93 -20 88 -17 133 -39
167 -80 26 -32 11 -31 -25 2 -66 62 -147 59 -160 -6 -5 -24 14 -125 26 -137 2
-3 18 8 35 24 34 32 91 62 116 62 9 0 16 4 16 9 0 6 16 7 35 4 19 -3 42 -2 51
1 15 6 11 11 -19 33 -20 14 -37 30 -37 35 0 16 -113 81 -164 94 -71 19 -122
18 -130 -2z m180 -126 c4 -6 -3 -20 -17 -31 -26 -21 -36 -9 -19 22 12 23 25
27 36 9z"/>
<path d="M1325 1738 c-22 -11 -60 -39 -83 -60 l-44 -40 -24 35 c-46 68 -138
74 -193 11 -26 -28 -31 -43 -31 -83 0 -80 58 -129 140 -118 35 4 40 2 40 -14
0 -10 4 -19 8 -19 11 0 93 102 145 179 34 50 19 39 -25 -20 -10 -13 -18 -18
-18 -12 0 6 6 16 14 22 7 6 16 24 19 39 4 18 20 36 51 54 25 15 46 32 46 38 0
12 3 13 -45 -12z m-262 -51 c-18 -6 -47 -23 -65 -38 -41 -37 -44 -36 -21 4 20
33 75 60 103 49 10 -4 5 -9 -17 -15z m47 -47 c24 -24 25 -38 4 -68 -17 -24
-62 -30 -82 -10 -18 18 -15 69 6 84 25 19 49 17 72 -6z m48 -47 c3 -35 -23
-73 -51 -73 -21 0 -21 1 6 24 15 13 27 32 27 43 0 16 8 33 14 33 1 0 3 -12 4
-27z m-101 -79 c-3 -3 -12 -4 -19 -1 -8 3 -5 6 6 6 11 1 17 -2 13 -5z"/>
<path d="M3385 1746 c-17 -7 -43 -28 -58 -45 -22 -27 -27 -42 -27 -88 0 -51 3
-58 39 -94 34 -34 44 -39 85 -39 77 0 131 39 146 105 16 71 -22 140 -89 163
-43 15 -58 15 -96 -2z m29 -34 c2 -4 -11 -20 -30 -35 -31 -26 -34 -26 -34 -8
0 11 10 27 22 35 25 18 35 20 42 8z m54 -48 c29 -20 31 -79 3 -94 -28 -14 -52
-12 -73 7 -24 21 -23 58 2 83 24 24 38 25 68 4z m58 -110 c-3 -8 -17 -14 -31
-14 l-26 0 28 28 c28 27 42 20 29 -14z"/>
<path d="M3070 1740 c0 -5 5 -10 11 -10 5 0 7 5 4 10 -3 6 -8 10 -11 10 -2 0
-4 -4 -4 -10z"/>
<path d="M170 1735 c0 -17 64 -168 67 -159 2 6 -8 37 -22 69 -14 32 -25 63
-25 71 0 7 -4 16 -10 19 -5 3 -10 4 -10 0z"/>
<path d="M2195 1688 c-4 -18 -13 -36 -19 -40 -8 -6 -7 -8 2 -8 6 0 12 -4 12
-10 0 -5 -7 -7 -15 -4 -20 8 -19 -6 1 -21 13 -9 17 -27 16 -73 0 -56 -3 -65
-32 -93 -21 -22 -28 -34 -20 -39 21 -13 7 -45 -22 -48 -17 -2 -30 -11 -33 -23
-4 -12 -13 -18 -21 -15 -11 4 -14 -6 -14 -45 0 -28 4 -48 9 -45 5 3 13 0 19
-7 16 -18 -2 -41 -27 -34 -14 3 -22 -1 -26 -14 -4 -11 -22 -40 -41 -65 l-34
-45 62 -29 c47 -22 78 -30 121 -30 55 0 57 -1 58 -27 l1 -28 9 30 c5 20 6 9 3
-35 -5 -59 -9 -67 -45 -101 -21 -20 -40 -35 -41 -33 -2 1 -9 -4 -16 -12 -11
-12 -10 -15 5 -20 10 -3 25 -9 33 -13 9 -5 30 -12 48 -16 27 -6 32 -11 33 -38
1 -23 4 -16 11 23 5 30 6 73 3 95 -16 100 -22 336 -12 448 8 86 8 123 0 136
-7 12 -8 23 -1 35 7 12 6 32 -1 60 -6 24 -8 79 -4 129 4 59 3 87 -5 87 -6 0
-14 -15 -17 -32z m6 -381 c-13 -13 -26 -3 -16 12 3 6 11 8 17 5 6 -4 6 -10 -1
-17z m-31 -56 c0 -15 -5 -19 -21 -16 -27 5 -33 11 -24 24 11 19 45 13 45 -8z
m22 -103 c-15 -15 -26 -4 -18 18 5 13 9 15 18 6 9 -9 9 -15 0 -24z m-44 -41
c2 -11 -3 -17 -17 -17 -22 0 -35 15 -27 29 9 15 41 6 44 -12z m-93 -17 c0 -8
-10 -16 -22 -18 -22 -3 -32 16 -16 32 12 11 38 2 38 -14z m155 -20 c0 -5 -9
-10 -21 -10 -11 0 -17 5 -14 10 3 6 13 10 21 10 8 0 14 -4 14 -10z"/>
<path d="M4119 1633 c-11 -27 -27 -60 -35 -75 -8 -16 -11 -28 -6 -28 5 0 12 8
15 18 3 9 17 43 30 75 14 31 23 57 20 57 -2 0 -13 -21 -24 -47z"/>
<path d="M1337 1652 c-22 -24 -21 -28 3 -55 24 -25 12 -34 -20 -17 -26 14 -45
-1 -89 -67 -36 -54 -33 -91 12 -173 33 -60 69 -97 105 -106 27 -7 29 -24 4
-24 -23 0 -121 87 -133 118 -9 22 -20 71 -23 102 -3 25 -16 23 -38 -5 -18 -24
-19 -31 -9 -66 31 -104 156 -199 272 -207 59 -4 59 -4 50 19 -7 20 -16 24 -47
24 -32 0 -40 4 -42 22 -2 12 -15 26 -33 33 -16 7 -43 28 -60 47 -29 34 -37 49
-54 103 -7 22 -6 23 9 11 9 -7 20 -28 24 -45 11 -41 37 -45 73 -10 16 15 31
25 34 23 2 -3 9 -23 14 -45 7 -29 9 -32 10 -14 l1 25 20 -25 c25 -32 25 -52 0
-75 -15 -14 -17 -21 -8 -26 32 -20 50 64 23 115 -8 15 -12 32 -9 37 3 5 0 8
-7 7 -6 -2 -20 20 -30 48 -18 50 -18 54 1 120 16 56 17 72 7 93 -15 32 -38 37
-60 13z m-20 -138 c14 -14 13 -15 -17 -12 -19 2 -35 9 -38 16 -6 18 36 15 55
-4z m3 -64 c9 -1 5 -6 -10 -15 -35 -20 -50 -18 -50 6 0 17 4 20 23 15 12 -3
29 -6 37 -6z m11 -91 c-25 -24 -54 -25 -49 -2 3 17 45 34 61 25 5 -2 -1 -13
-12 -23z"/>
<path d="M3140 1655 c-7 -8 -20 -15 -29 -15 -13 0 -13 -2 -2 -9 8 -5 11 -17 6
-32 -5 -19 -4 -21 4 -9 9 13 11 13 11 -2 0 -10 8 -18 17 -18 14 0 14 -3 5 -12
-8 -8 -15 -9 -20 -3 -4 6 -20 11 -37 12 -16 1 -22 -1 -12 -4 31 -9 18 -22 -30
-28 -67 -9 -71 -11 -43 -23 24 -10 23 -11 -15 -12 -36 -2 -37 -3 -15 -10 18
-7 12 -8 -20 -4 -25 3 -56 1 -70 -4 -49 -18 97 -25 157 -7 55 16 173 97 173
118 0 7 -15 28 -33 45 -30 29 -35 31 -47 17z m-50 -139 c0 -9 -30 -14 -35 -6
-4 6 3 10 14 10 12 0 21 -2 21 -4z"/>
<path d="M2025 1644 c-32 -8 -66 -14 -75 -13 -28 4 -60 -15 -51 -30 7 -11 17
-10 53 8 45 22 83 28 74 12 -3 -5 1 -12 10 -15 24 -9 31 -7 14 5 -11 8 -7 9
17 4 18 -4 40 -2 50 4 15 9 14 10 -9 5 -23 -5 -26 -3 -21 15 3 12 4 21 2 20
-2 0 -31 -7 -64 -15z"/>
<path d="M2890 1648 c0 -4 -9 -8 -20 -8 -10 0 -24 -8 -29 -17 -9 -16 -10 -15
-11 6 0 13 -2 22 -4 20 -8 -7 -17 -69 -11 -69 10 0 105 64 105 71 0 3 -7 6
-15 6 -8 0 -15 -4 -15 -9z"/>
<path d="M751 1593 c-15 -54 -14 -59 21 -119 26 -43 38 -54 58 -54 40 0 52 18
34 51 -9 19 -12 42 -8 68 6 38 5 40 -35 65 -22 14 -45 26 -50 26 -6 0 -15 -17
-20 -37z"/>
<path d="M2711 1600 c-1 -27 26 -52 48 -45 12 4 18 12 14 21 -3 9 1 14 13 14
14 0 15 3 6 12 -8 8 -15 8 -26 -2 -9 -7 -13 -16 -10 -21 3 -5 2 -9 -3 -9 -13
0 -30 14 -36 30 -5 13 -5 13 -6 0z"/>
<path d="M497 1569 c-7 -24 -1 -39 14 -39 11 0 12 30 0 48 -6 10 -10 8 -14 -9z"/>
<path d="M3030 1550 c19 -13 30 -13 30 0 0 6 -10 10 -22 10 -19 0 -20 -2 -8
-10z"/>
<path d="M1685 1541 c-50 -13 -105 -46 -133 -83 -12 -15 -9 -16 32 -16 25 0
53 -5 63 -11 17 -10 17 -10 -1 -11 -20 0 -20 0 0 -16 14 -11 16 -17 6 -21 -10
-4 -10 -8 -2 -19 18 -21 -61 -96 -97 -92 -31 3 -51 42 -39 73 6 17 7 17 21 -1
14 -18 14 -18 15 4 0 13 -6 22 -15 22 -8 0 -15 8 -15 18 -1 27 -16 -5 -24 -51
-6 -31 -3 -41 19 -62 14 -14 25 -30 25 -35 0 -6 10 -10 23 -10 20 -1 21 -1 4
-11 -10 -6 -27 -9 -38 -6 -21 6 -26 -17 -10 -42 8 -12 16 -13 49 -3 146 44
245 205 216 351 -6 27 -10 31 -38 30 -17 -1 -44 -4 -61 -8z m45 -47 c0 -8 -6
-11 -15 -8 -8 4 -15 15 -15 26 0 17 3 18 15 8 8 -7 15 -19 15 -26z m-60 -18
c0 -21 -15 -28 -45 -20 -29 7 -33 20 -7 27 34 9 52 7 52 -7z m31 -69 c-13 -13
-15 21 -3 50 6 15 8 13 10 -11 2 -16 -1 -33 -7 -39z m19 -23 c-7 -25 -19 -44
-26 -44 -8 0 -14 5 -14 10 0 6 5 10 10 10 6 0 16 21 22 46 7 25 14 40 16 34 2
-6 -1 -31 -8 -56z m-32 -64 c3 -8 0 -10 -8 -5 -10 6 -12 4 -7 -8 4 -11 2 -14
-9 -10 -16 6 -16 6 -8 28 7 18 25 16 32 -5z m-52 -35 c-3 -23 -23 -38 -53 -41
l-28 -2 31 14 c17 7 34 20 37 29 8 19 16 20 13 0z"/>
<path d="M1845 1519 c-4 -6 -5 -12 -2 -15 2 -3 7 2 10 11 7 17 1 20 -8 4z"/>
<path d="M2928 1523 c6 -2 10 -9 6 -14 -3 -5 0 -9 5 -9 6 0 11 7 11 15 0 8 -8
15 -17 14 -11 0 -13 -3 -5 -6z"/>
<path d="M2835 1490 c3 -5 10 -10 16 -10 5 0 9 5 9 10 0 6 -7 10 -16 10 -8 0
-12 -4 -9 -10z"/>
<path d="M3560 1421 c-25 -4 -39 -14 -48 -35 -17 -35 -6 -59 43 -99 l34 -27
13 28 c8 15 22 40 33 55 13 20 14 27 4 25 -7 -2 -14 6 -15 18 -1 24 -12 45
-22 43 -4 -1 -23 -4 -42 -8z"/>
<path d="M1580 1415 c0 -15 18 -40 24 -34 3 3 -1 14 -9 25 -8 10 -14 15 -15 9z"/>
<path d="M3641 1394 c0 -11 3 -14 6 -6 3 7 2 16 -1 19 -3 4 -6 -2 -5 -13z"/>
<path d="M1348 1329 c-22 -12 -24 -47 -4 -55 8 -3 23 -1 33 6 16 10 16 10 -4
5 -31 -9 -40 15 -13 37 24 19 16 24 -12 7z"/>
<path d="M893 1318 c-9 -12 -20 -49 -26 -88 -1 -9 4 -14 13 -12 12 2 11 -1 -2
-11 -10 -8 -15 -17 -11 -20 11 -12 113 72 113 93 0 17 -39 50 -60 50 -10 0
-22 -6 -27 -12z"/>
<path d="M1816 1290 c6 -53 46 -139 78 -169 l24 -22 21 27 c12 15 18 30 15 33
-4 3 -9 0 -11 -6 -8 -21 -41 -15 -49 9 -3 12 -15 31 -25 42 -11 11 -19 30 -19
42 0 13 -5 26 -10 29 -6 4 -8 11 -5 16 4 5 2 9 -4 9 -5 0 -12 8 -15 18 -3 9
-3 -3 0 -28z"/>
<path d="M3472 1313 c2 -10 16 -24 31 -31 15 -7 27 -17 27 -23 0 -5 5 -9 10
-9 6 0 3 12 -7 28 -29 48 -68 70 -61 35z"/>
<path d="M3133 1293 c-7 -2 -13 -16 -13 -29 0 -21 4 -24 40 -24 46 0 54 19 18
44 -24 17 -26 17 -45 9z"/>
<path d="M3033 1275 c-7 -7 -17 -15 -24 -17 -10 -3 -9 -10 3 -27 l16 -23 17
25 c19 30 9 65 -12 42z"/>
<path d="M3505 1260 c3 -5 8 -10 11 -10 2 0 4 5 4 10 0 6 -5 10 -11 10 -5 0
-7 -4 -4 -10z"/>
<path d="M960 1225 c-13 -14 -19 -25 -14 -25 14 0 54 30 54 41 0 16 -16 10
-40 -16z"/>
<path d="M3363 1225 c-20 -8 -39 -28 -51 -52 -23 -45 -66 -93 -83 -93 -7 0 -9
-10 -6 -29 5 -23 1 -31 -19 -41 -26 -14 -24 -22 6 -27 12 -2 26 7 36 22 9 14
46 47 83 74 65 49 91 82 91 120 0 31 -21 41 -57 26z"/>
<path d="M2694 1189 c-23 -26 -9 -53 30 -57 34 -4 56 13 56 43 0 39 -55 48
-86 14z"/>
<path d="M910 1175 c-19 -23 -8 -25 14 -4 11 11 15 19 9 19 -6 0 -16 -7 -23
-15z"/>
<path d="M943 1178 c-22 -28 -24 -38 -9 -32 10 4 16 1 16 -7 1 -9 4 -8 11 4
13 23 -3 55 -18 35z"/>
<path d="M1114 1125 c-9 -47 9 -67 55 -63 31 3 36 7 39 29 2 19 -4 33 -24 48
-40 32 -62 27 -70 -14z"/>
<path d="M2850 1021 c-82 -83 -28 -126 108 -86 56 17 75 40 70 83 -3 26 -6 27
-58 27 -30 1 -61 4 -68 9 -8 5 -27 -7 -52 -33z"/>
<path d="M1433 1016 c-7 -8 -30 -17 -52 -21 -23 -4 -41 -12 -41 -19 0 -18 33
-46 54 -46 9 0 27 -11 40 -25 13 -14 42 -32 66 -40 75 -26 120 -16 120 28 0
23 -15 37 -63 60 -21 9 -46 31 -55 47 -18 32 -49 39 -69 16z"/>
<path d="M2262 928 c-13 -13 -17 -130 -5 -142 4 -4 8 -14 8 -22 0 -25 19 -15
23 13 4 31 17 43 47 43 27 0 85 37 85 54 0 7 -9 25 -21 40 -17 22 -28 26 -73
26 -28 0 -57 -5 -64 -12z"/>
<path d="M2652 875 c-17 -14 -41 -25 -55 -25 -31 0 -64 -39 -44 -52 23 -14 65
-8 126 19 63 28 79 46 60 69 -18 21 -54 17 -87 -11z"/>
<path d="M1095 872 c6 -6 42 -13 80 -17 58 -6 68 -5 57 6 -7 7 -42 15 -80 17
-45 3 -64 1 -57 -6z"/>
<path d="M1881 865 c-18 -8 -50 -15 -70 -15 -45 0 -54 -7 -41 -30 7 -13 28
-19 84 -23 101 -9 136 -1 136 29 0 16 -10 28 -30 39 -35 18 -36 18 -79 0z"/>
<path d="M2300 779 c0 -5 5 -7 10 -4 6 3 10 8 10 11 0 2 -4 4 -10 4 -5 0 -10
-5 -10 -11z"/>
</g>
</svg>
